<svg width="18" height="16" viewBox="0 0 18 16" fill="none" xmlns="http://www.w3.org/2000/svg">
<path d="M17.05 7H0.95C0.42533 7 0 7.42533 0 7.95V8.05C0 8.57467 0.42533 9 0.95 9H17.05C17.5747 9 18 8.57467 18 8.05V7.95C18 7.42533 17.5747 7 17.05 7Z" fill="white"/>
<path d="M17.05 14H0.95C0.42533 14 0 14.4253 0 14.95V15.05C0 15.5747 0.42533 16 0.95 16H17.05C17.5747 16 18 15.5747 18 15.05V14.95C18 14.4253 17.5747 14 17.05 14Z" fill="white"/>
<path d="M17.05 0H0.95C0.42533 0 0 0.425329 0 0.95V1.05C0 1.57467 0.42533 2 0.95 2H17.05C17.5747 2 18 1.57467 18 1.05V0.95C18 0.425329 17.5747 0 17.05 0Z" fill="white"/>
</svg>
