<svg width="21" height="21" viewBox="0 0 21 21" fill="none" xmlns="http://www.w3.org/2000/svg">
<path d="M1 13.9292C1 12.8246 1.89543 11.9292 3 11.9292H6.90561C8.01018 11.9292 8.90561 12.8246 8.90561 13.9292V17.9998C8.90561 19.1043 8.01018 19.9998 6.90561 19.9998H3C1.89543 19.9998 1 19.1043 1 17.9998V13.9292Z" stroke="#74789F"/>
<path d="M12.0942 13.9297C12.0942 12.8251 12.9897 11.9297 14.0942 11.9297H17.9998C19.1044 11.9297 19.9998 12.8251 19.9998 13.9297V18.0003C19.9998 19.1048 19.1044 20.0003 17.9998 20.0003H14.0942C12.9897 20.0003 12.0942 19.1048 12.0942 18.0003V13.9297Z" stroke="#74789F"/>
<path d="M17.9856 0.578613C19.0902 0.578613 19.9856 1.47404 19.9856 2.57861L19.9856 6.67721C19.9856 7.78178 19.0902 8.67721 17.9856 8.67721L14.1073 8.67721C13.0028 8.67721 12.1073 7.78178 12.1073 6.67721L12.1073 2.57861C12.1073 1.47404 13.0028 0.578613 14.1073 0.578613L17.9856 0.578613Z" stroke="#74789F"/>
<path d="M4.89744 7.98517C5.76218 7.98499 6.60199 7.68844 7.28316 7.14273L9.42481 9.33666L10.1137 8.63097L7.97204 6.43704C8.50501 5.73917 8.79468 4.87866 8.79488 3.99258C8.79488 1.79117 7.04639 0 4.89744 0C2.74849 0 1 1.79117 1 3.99258C1 6.194 2.74849 7.98517 4.89744 7.98517ZM4.89744 0.998146C6.50952 0.998146 7.82052 2.34115 7.82052 3.99258C7.82052 5.64402 6.50952 6.98702 4.89744 6.98702C3.28536 6.98702 1.97436 5.64402 1.97436 3.99258C1.97436 2.34115 3.28536 0.998146 4.89744 0.998146Z" fill="#74789F"/>
</svg>
