<svg width="24" height="24" viewBox="0 0 24 24" fill="none" xmlns="http://www.w3.org/2000/svg">
<path d="M11.9999 21.6201C11.8526 21.6197 11.7096 21.5704 11.5932 21.4801C7.88658 18.6001 5.33325 16.1201 3.54658 13.6735C1.26658 10.5468 0.746578 7.66013 1.99991 5.09346C2.89324 3.26013 5.45991 1.76013 8.45991 2.63346C9.89027 3.04662 11.1382 3.93265 11.9999 5.1468C12.8616 3.93265 14.1096 3.04662 15.5399 2.63346C18.5332 1.77346 21.1066 3.26013 21.9999 5.09346C23.2532 7.66013 22.7332 10.5468 20.4532 13.6735C18.6666 16.1201 16.1132 18.6001 12.4066 21.4801C12.2902 21.5704 12.1472 21.6197 11.9999 21.6201ZM6.75325 3.72013C6.03941 3.69235 5.33149 3.85949 4.70547 4.20363C4.07946 4.54776 3.55898 5.05589 3.19991 5.67346C2.16658 7.79346 2.63324 10.1535 4.62658 12.8801C6.74496 15.6125 9.22552 18.0437 11.9999 20.1068C14.7739 18.0458 17.2544 15.6168 19.3732 12.8868C21.3732 10.1535 21.8332 7.79346 20.7999 5.68013C20.1332 4.3468 18.1332 3.28679 15.9066 3.91346C15.1926 4.12446 14.5307 4.48261 13.9635 4.96485C13.3963 5.44708 12.9364 6.04273 12.6132 6.71346C12.563 6.83574 12.4776 6.94032 12.3678 7.01392C12.258 7.08752 12.1288 7.12682 11.9966 7.12682C11.8644 7.12682 11.7352 7.08752 11.6254 7.01392C11.5156 6.94032 11.4301 6.83574 11.3799 6.71346C11.0592 6.04106 10.6001 5.44401 10.0325 4.96147C9.46495 4.47894 8.80182 4.12179 8.08658 3.91346C7.65323 3.7876 7.2045 3.72253 6.75325 3.72013Z" fill="#74789F"/>
</svg>
