<svg width="117" height="47" viewBox="0 0 117 47" fill="none" xmlns="http://www.w3.org/2000/svg">
<path d="M25.3716 28.5159C25.3636 29.0483 25.276 29.5768 25.1116 30.085C24.927 30.68 24.6185 31.2324 24.2049 31.7081C23.7913 32.1839 23.2815 32.5731 22.7066 32.8519C21.9817 33.1911 21.1827 33.3562 20.3775 33.3331H4.71247C4.43041 33.3347 4.15074 33.2832 3.88913 33.1814C3.65127 33.0833 3.43448 32.9432 3.24997 32.7682C3.06262 32.5867 2.91361 32.3717 2.81122 32.1353C2.70507 31.8811 2.6517 31.6092 2.65413 31.3351V13.3792C2.64965 12.846 2.86385 12.3326 3.24997 11.9513C3.43037 11.7637 3.64764 11.6125 3.88913 11.5068C4.15074 11.4049 4.43041 11.3534 4.71247 11.3551H18.5195C19.0716 11.3645 19.6192 11.4526 20.1445 11.6166C20.7347 11.7946 21.2857 12.0766 21.7695 12.4482C22.2899 12.8573 22.7161 13.3668 23.0208 13.9441C23.3835 14.6482 23.5603 15.428 23.5354 16.2141V16.962C23.5242 17.7334 23.4002 18.4994 23.167 19.2372C22.9175 20.0664 22.5197 20.847 21.9916 21.5438C22.4637 21.8269 22.9 22.1622 23.2916 22.5428C23.7135 22.9439 24.0778 23.3978 24.375 23.8923C24.694 24.4388 24.9397 25.0223 25.1062 25.6287C25.2909 26.324 25.3801 27.0397 25.3716 27.7575V28.5159ZM21.2495 27.7523C21.2567 27.2737 21.1703 26.7982 20.995 26.3505C20.8334 25.9582 20.59 25.6021 20.28 25.3045C19.973 25.0061 19.6037 24.7743 19.1966 24.6245C18.7288 24.4574 18.2329 24.3758 17.7341 24.3839H8.41205L11.505 20.3722H15.8383C16.3493 20.3777 16.8568 20.289 17.3333 20.1107C17.7403 19.9609 18.1096 19.7291 18.4166 19.4308C18.7251 19.1329 18.9667 18.7768 19.1262 18.3847C19.2953 17.9357 19.3779 17.4606 19.37 16.9829V16.2141C19.37 15.6387 19.0829 15.3563 18.5141 15.3563H6.75997V29.358H20.3775H20.6429C20.745 29.3533 20.8441 29.3226 20.93 29.2691C21.0278 29.2036 21.1047 29.113 21.1521 29.0075C21.2274 28.8432 21.2608 28.6639 21.2495 28.4845V27.7523Z" fill="#98BE2B"/>
<path d="M54.2749 18.3062C54.441 18.66 54.4865 19.0556 54.4049 19.436C54.332 19.8123 54.1432 20.1586 53.8633 20.4298L44.487 29.4469H54.237V33.3644H39.2004H39.157C38.8439 33.2724 38.554 33.1183 38.3059 32.9121C38.0579 32.7059 37.857 32.452 37.7162 32.1667C37.5625 31.8044 37.5237 31.4061 37.6048 31.0225C37.6858 30.6389 37.8829 30.2871 38.1712 30.0118L47.5041 20.9946H37.7541V17.0771H52.417C52.8128 17.0739 53.2008 17.183 53.5329 17.3909C53.8764 17.6103 54.1368 17.9316 54.2749 18.3062Z" fill="#98BE2B"/>
<path d="M88.8333 26.3558H78V22.3755H88.8333V26.3558Z" fill="#98BE2B"/>
<path d="M114.422 18.7717C114.434 19.5968 114.315 20.4187 114.07 21.2091C113.858 21.8833 113.54 22.522 113.127 23.1025C112.746 23.6355 112.282 24.1083 111.751 24.5042C111.25 24.8834 110.705 25.2046 110.126 25.4614C109.579 25.7001 109.004 25.8757 108.415 25.9844C107.88 26.0931 107.336 26.1492 106.79 26.1518L115.407 33.3383H109.021L100.425 26.1518H97.4566L100.55 22.3545H105.966C106.75 22.3293 107.52 22.1514 108.23 21.8315C108.631 21.6681 108.998 21.436 109.314 21.1463C109.63 20.8527 109.876 20.4956 110.034 20.1003C110.21 19.6564 110.296 19.1842 110.289 18.709V16.1984C110.298 16.0201 110.268 15.842 110.202 15.6754C110.153 15.5706 110.077 15.4803 109.98 15.4139C109.894 15.3596 109.795 15.3255 109.693 15.3145H109.417H95.8045V33.3592H91.677V13.3949C91.6754 13.1272 91.7307 12.8619 91.8395 12.6156C91.9392 12.376 92.0864 12.1574 92.2729 11.9723C92.4582 11.7846 92.6838 11.6383 92.9337 11.5434C93.1942 11.4373 93.4744 11.3839 93.757 11.3865H109.417C110.223 11.3618 111.022 11.5289 111.746 11.8729C112.348 12.1605 112.878 12.571 113.3 13.0759C113.686 13.5418 113.976 14.0743 114.156 14.645C114.322 15.1531 114.411 15.6815 114.422 16.2141V18.7717Z" fill="#98BE2B"/>
<path d="M24.0933 19.9538C23.2752 19.7857 22.5353 19.3666 21.984 18.7592C21.4327 18.1517 21.0996 17.3884 21.0343 16.5832C20.969 15.778 21.1751 14.974 21.6218 14.2911C22.0685 13.6082 22.7318 13.0831 23.5129 12.794C24.294 12.505 25.1509 12.4675 25.9558 12.6872C26.7607 12.9069 27.4705 13.372 27.9793 14.0132C28.488 14.6543 28.7685 15.437 28.7788 16.2447C28.7892 17.0523 28.5288 17.8415 28.0366 18.4946" stroke="white" stroke-width="0.75" stroke-miterlimit="10" stroke-linecap="round"/>
<path d="M24.4022 18.4318L24.1801 18.3743C23.7578 18.2315 23.3887 17.9714 23.1191 17.6266C22.8494 17.2818 22.6914 16.8678 22.6647 16.4366C22.638 16.0053 22.7439 15.5761 22.9691 15.2028C23.1944 14.8295 23.5288 14.5288 23.9305 14.3385C24.3321 14.1482 24.7831 14.0767 25.2267 14.1332C25.6703 14.1896 26.0867 14.3714 26.4236 14.6556C26.7605 14.9399 27.0029 15.314 27.1203 15.7308C27.2377 16.1477 27.2249 16.5888 27.0834 16.9987C27.0213 17.1717 26.9376 17.3368 26.8343 17.4903" stroke="white" stroke-width="0.25" stroke-miterlimit="10"/>
<path d="M31.3516 27.7209L34.6016 30.6813L37.3099 29.6352L26.6283 20.8325L24.8841 34.5465L25.9187 34.1333L26.9533 33.7306L28.4429 33.1343L28.2479 34.6668L24.1366 36.3092C24.0392 36.3519 23.9317 36.3687 23.8253 36.3579C23.719 36.3471 23.6175 36.3091 23.5313 36.2478C23.4452 36.1865 23.3776 36.1041 23.3355 36.0092C23.2933 35.9142 23.2782 35.8102 23.2916 35.7077L25.3933 19.2111C25.4053 19.1077 25.4463 19.0094 25.512 18.9269C25.5778 18.8444 25.6656 18.7809 25.766 18.7432C25.8665 18.7055 25.9757 18.695 26.0819 18.713C26.188 18.7309 26.2871 18.7766 26.3683 18.845L39.2112 29.4156C39.2881 29.4804 39.3467 29.563 39.3814 29.6557C39.4161 29.7485 39.4258 29.8482 39.4096 29.9455C39.3933 30.0429 39.3517 30.1346 39.2885 30.2121C39.2254 30.2896 39.1428 30.3502 39.0487 30.3884L34.2875 32.2818L30.9129 29.2116L29.732 29.698L29.9433 28.3015L31.3516 27.7209Z" fill="white"/>
<path d="M61.2083 29.4522V33.3592H57.1079V25.3202C57.0962 24.1814 57.3152 23.0514 57.7524 21.9937C58.1545 21.0176 58.7602 20.1319 59.5317 19.3913C60.3033 18.6508 61.2242 18.0714 62.2374 17.6891C63.3193 17.2733 64.4748 17.0655 65.6391 17.0771H73.6666C73.8749 17.0749 74.0814 17.114 74.2733 17.1922C74.6491 17.3458 74.9483 17.6347 75.1075 17.9977C75.1884 18.183 75.229 18.3824 75.2266 18.5835V33.3592H71.0774V29.3162H62.5029L65.1787 26.3296H71.0558L71.0016 20.9685H66.8524C66.7549 20.9685 66.3108 20.9685 66.0183 21.0051C65.6513 21.0397 65.2885 21.1081 64.9349 21.2091C64.496 21.3302 64.0712 21.4949 63.6674 21.7008C63.2072 21.9367 62.7929 22.2482 62.4433 22.6213C62.0449 23.0501 61.7327 23.5467 61.5224 24.0858C61.2629 24.7686 61.1397 25.4927 61.1595 26.2198L61.2083 29.4522Z" fill="#98BE2B"/>
</svg>
