<svg width="36" height="36" viewBox="0 0 36 36" fill="none" xmlns="http://www.w3.org/2000/svg">
<path d="M8.61113 17.856C10.7982 17.856 12.5711 16.0831 12.5711 13.896C12.5711 11.709 10.7982 9.93604 8.61113 9.93604C6.42408 9.93604 4.65112 11.709 4.65112 13.896C4.65112 16.0831 6.42408 17.856 8.61113 17.856Z" stroke="#74789F" stroke-miterlimit="10"/>
<path d="M14.3135 22.781C14.1619 21.3965 13.4933 20.1201 12.4415 19.2071C11.3896 18.2941 10.032 17.8117 8.63988 17.8562C7.21561 17.7838 5.81889 18.2674 4.7443 19.205C3.66971 20.1426 3.00124 21.4609 2.87988 22.8818V25.1426C2.87988 25.4138 2.9876 25.6738 3.17934 25.8656C3.37107 26.0573 3.63113 26.165 3.90228 26.165H13.2911C13.4253 26.165 13.5583 26.1386 13.6823 26.0872C13.8064 26.0358 13.9191 25.9605 14.014 25.8656C14.109 25.7706 14.1843 25.6579 14.2357 25.5339C14.287 25.4098 14.3135 25.2769 14.3135 25.1426V22.781Z" stroke="#74789F" stroke-miterlimit="10"/>
<path d="M18 11.2754H34.0992" stroke="#74789F" stroke-miterlimit="10" stroke-linecap="round"/>
<path d="M18 18H27.3888" stroke="#74789F" stroke-miterlimit="10" stroke-linecap="round"/>
<path d="M18.2017 24.7246H31.6801" stroke="#74789F" stroke-miterlimit="10" stroke-linecap="round"/>
</svg>
