<svg width="120" height="36" viewBox="0 0 120 36" fill="none" xmlns="http://www.w3.org/2000/svg">
<g clip-path="url(#clip0_593_3148)">
<path d="M125.236 0H3.51378C1.57317 0 0 1.44646 0 3.23077V32.7692C0 34.5535 1.57317 36 3.51378 36H125.236C127.177 36 128.75 34.5535 128.75 32.7692V3.23077C128.75 1.44646 127.177 0 125.236 0Z" fill="#221F1F"/>
</g>
<path d="M35.3502 17.13C35.3313 14.961 37.078 13.906 37.1581 13.8566C36.1686 12.3739 34.6351 12.1714 34.0967 12.1556C32.809 12.0166 31.5598 12.9474 30.9036 12.9474C30.2343 12.9474 29.2237 12.1691 28.1354 12.1915C26.7341 12.2139 25.4232 13.0477 24.7044 14.3419C23.221 16.982 24.3275 20.861 25.7491 22.995C26.4599 24.0402 27.2915 25.2066 28.3783 25.1655C29.4427 25.1207 29.8399 24.4687 31.124 24.4687C32.3965 24.4687 32.7697 25.1655 33.8785 25.1393C35.0206 25.1207 35.7394 24.0896 36.4255 23.0353C37.2468 21.8375 37.5771 20.6577 37.5902 20.5971C37.5626 20.5889 35.372 19.7291 35.3502 17.13Z" fill="white"/>
<path d="M33.255 10.7515C33.8276 10.0158 34.219 9.01537 34.1099 8C33.2819 8.03739 32.2459 8.58844 31.6494 9.30846C31.1219 9.94251 30.6505 10.9811 30.772 11.9583C31.7025 12.0293 32.6577 11.476 33.255 10.7515Z" fill="white"/>
<path d="M52.0969 24.5639H50.6348L49.8337 22.0476H47.0499L46.2867 24.5639H44.8633L47.6214 15.9971H49.3245L52.0969 24.5639ZM49.5927 20.9918L48.8681 18.7545C48.7916 18.5263 48.6478 17.9877 48.4361 17.1408H48.4103C48.3259 17.5049 48.19 18.0435 48.0033 18.7545L47.2924 20.9918H49.5927Z" fill="white"/>
<path d="M59.1887 21.3991C59.1887 22.4499 58.9047 23.2803 58.3368 23.8897C57.8282 24.4326 57.1967 24.7037 56.4428 24.7037C55.6288 24.7037 55.0444 24.4111 54.6889 23.8268H54.6631V27.0805H53.2905V20.4199C53.2905 19.7597 53.2734 19.0816 53.2397 18.3864H54.4471L54.5237 19.3656H54.5494C55.0072 18.6281 55.7017 18.2598 56.6337 18.2598C57.3626 18.2598 57.9706 18.5473 58.4577 19.1238C58.9455 19.7003 59.1887 20.4585 59.1887 21.3991ZM57.7903 21.4492C57.7903 20.8476 57.6551 20.3519 57.3833 19.9621C57.0865 19.5551 56.6881 19.352 56.1888 19.352C55.8505 19.352 55.5422 19.465 55.2676 19.6889C54.9922 19.9142 54.8119 20.2082 54.7275 20.573C54.6853 20.7432 54.6639 20.882 54.6639 20.9914V22.0214C54.6639 22.4706 54.8019 22.8497 55.0773 23.1594C55.3527 23.4691 55.711 23.6236 56.1509 23.6236C56.6681 23.6236 57.0701 23.4241 57.3583 23.0264C57.6458 22.6272 57.7903 22.1022 57.7903 21.4492Z" fill="white"/>
<path d="M66.2937 21.3991C66.2937 22.4499 66.0097 23.2803 65.4411 23.8897C64.9332 24.4326 64.3016 24.7037 63.5477 24.7037C62.7338 24.7037 62.1494 24.4111 61.7939 23.8268H61.7681V27.0805H60.3955V20.4199C60.3955 19.7597 60.3783 19.0816 60.3447 18.3864H61.5521L61.6286 19.3656H61.6544C62.1115 18.6281 62.806 18.2598 63.7387 18.2598C64.4669 18.2598 65.0749 18.5473 65.5634 19.1238C66.0498 19.7003 66.2937 20.4585 66.2937 21.3991ZM64.8953 21.4492C64.8953 20.8476 64.7594 20.3519 64.4876 19.9621C64.1908 19.5551 63.7938 19.352 63.2931 19.352C62.9541 19.352 62.6465 19.465 62.3711 19.6889C62.0957 19.9142 61.9162 20.2082 61.8318 20.573C61.7896 20.7432 61.7681 20.882 61.7681 20.9914V22.0214C61.7681 22.4706 61.9062 22.8497 62.1801 23.1594C62.4555 23.4684 62.8139 23.6236 63.2552 23.6236C63.7723 23.6236 64.1743 23.4241 64.4626 23.0264C64.7515 22.6272 64.8953 22.1022 64.8953 21.4492Z" fill="white"/>
<path d="M74.2373 22.1605C74.2373 22.8894 73.9841 23.4823 73.4763 23.9401C72.9184 24.4401 72.1409 24.6904 71.1423 24.6904C70.2203 24.6904 69.4815 24.5131 68.9221 24.1568L69.2404 23.0131C69.8427 23.3772 70.5043 23.5603 71.2246 23.5603C71.7417 23.5603 72.1437 23.443 72.4327 23.2098C72.7202 22.9766 72.864 22.6641 72.864 22.2735C72.864 21.9259 72.7453 21.6326 72.5078 21.3952C72.2718 21.1577 71.8769 20.9367 71.3262 20.7328C69.8262 20.1735 69.0766 19.3538 69.0766 18.2766C69.0766 17.572 69.3391 16.9948 69.8649 16.5456C70.3892 16.0957 71.088 15.8711 71.962 15.8711C72.7417 15.8711 73.389 16.007 73.9062 16.2781L73.5628 17.3968C73.08 17.1343 72.5343 17.0027 71.9234 17.0027C71.4406 17.0027 71.0637 17.1221 70.7933 17.3589C70.5651 17.5706 70.45 17.8288 70.45 18.1342C70.45 18.4726 70.5808 18.7529 70.8433 18.9732C71.0722 19.1764 71.4871 19.3967 72.0894 19.6342C72.8261 19.931 73.3676 20.2779 73.7159 20.6756C74.0642 21.0719 74.2373 21.5683 74.2373 22.1605Z" fill="white"/>
<path d="M78.7753 19.416H77.2625V22.4151C77.2625 23.1776 77.5293 23.5588 78.0636 23.5588C78.309 23.5588 78.5121 23.5374 78.673 23.4952L78.7109 24.5373C78.4406 24.6382 78.0844 24.689 77.6437 24.689C77.1016 24.689 76.6781 24.5237 76.3727 24.1933C76.068 23.8621 75.9149 23.3078 75.9149 22.5281V19.4145H75.0137V18.3845H75.9149V17.2537L77.2632 16.8467V18.3845H78.776L78.7753 19.416Z" fill="white"/>
<path d="M85.6011 21.4241C85.6011 22.374 85.3292 23.153 84.7871 23.7631C84.2184 24.3904 83.4645 24.7037 82.5239 24.7037C81.6177 24.7037 80.896 24.4033 80.3581 23.8017C79.8202 23.2002 79.5505 22.4413 79.5505 21.5264C79.5505 20.5694 79.8273 19.7854 80.3831 19.1753C80.9375 18.5652 81.6856 18.2598 82.6262 18.2598C83.5325 18.2598 84.2621 18.5602 84.8121 19.1624C85.3385 19.7468 85.6011 20.5007 85.6011 21.4241ZM84.1769 21.4685C84.1769 20.8984 84.0553 20.4099 83.8086 20.0029C83.521 19.5101 83.1097 19.264 82.5761 19.264C82.0247 19.264 81.6055 19.5108 81.3173 20.0029C81.0705 20.4113 80.9489 20.9077 80.9489 21.4942C80.9489 22.0636 81.0705 22.5529 81.3173 22.9591C81.6141 23.452 82.029 23.698 82.5633 23.698C83.0876 23.698 83.4989 23.4469 83.7957 22.9463C84.0496 22.5314 84.1769 22.0379 84.1769 21.4685Z" fill="white"/>
<path d="M90.0621 19.5932C89.9262 19.5682 89.7817 19.5553 89.6294 19.5553C89.1466 19.5553 88.7732 19.7377 88.5107 20.1025C88.2818 20.4244 88.1674 20.8314 88.1674 21.3221V24.563H86.7955L86.8083 20.3307C86.8083 19.619 86.7912 18.9702 86.7568 18.3858H87.9521L88.0021 19.5675H88.04C88.1845 19.1612 88.4134 18.8343 88.726 18.589C89.0314 18.368 89.3619 18.2578 89.7181 18.2578C89.8447 18.2578 89.9598 18.2671 90.0614 18.2828C90.0621 18.2843 90.0621 19.5932 90.0621 19.5932Z" fill="white"/>
<path d="M96.2 21.1826C96.2 21.4286 96.1842 21.636 96.1499 21.8049H92.0328C92.0485 22.415 92.2481 22.8821 92.63 23.2039C92.9769 23.4915 93.4254 23.636 93.9769 23.636C94.5863 23.636 95.1428 23.5387 95.6428 23.3434L95.8581 24.2962C95.2737 24.5508 94.5834 24.6781 93.7873 24.6781C92.8296 24.6781 92.0778 24.3963 91.5306 23.8327C90.9849 23.269 90.7109 22.513 90.7109 21.5638C90.7109 20.6325 90.9649 19.8564 91.4741 19.2377C92.007 18.5775 92.7273 18.2471 93.6343 18.2471C94.5248 18.2471 95.1986 18.5775 95.6564 19.2377C96.0183 19.7627 96.2 20.4115 96.2 21.1826ZM94.8917 20.8264C94.901 20.4194 94.8109 20.0682 94.6249 19.7713C94.3875 19.3894 94.0227 19.1991 93.5313 19.1991C93.0828 19.1991 92.7173 19.3851 92.439 19.7584C92.2102 20.0553 92.075 20.4115 92.0328 20.8256L94.8917 20.8264Z" fill="white"/>
<path d="M44.988 12.4205L45.5696 12.2696C45.6135 12.4938 45.7309 12.7181 45.9215 12.9423C46.1144 13.1665 46.3689 13.2786 46.6854 13.2786C47.0081 13.2786 47.2627 13.1958 47.4492 13.0303C47.6357 12.8648 47.729 12.6646 47.729 12.4299C47.729 12.1764 47.6305 11.9752 47.4335 11.8264C47.2365 11.6756 46.9683 11.6001 46.6288 11.6001H46.3365V11.0689C46.6173 11.0689 46.8321 11.0531 46.9809 11.0217C47.1296 10.9882 47.2606 10.9054 47.3738 10.7734C47.4891 10.6393 47.5466 10.4873 47.5466 10.3176C47.5466 10.1165 47.4681 9.94147 47.3109 9.7927C47.1558 9.64391 46.9452 9.56952 46.6791 9.56952C46.4465 9.56952 46.2474 9.6282 46.0819 9.74555C45.9185 9.8608 45.8053 10.0148 45.7424 10.2076C45.6796 10.3983 45.6481 10.5408 45.6481 10.6351L45.0634 10.5031C45.2081 9.52447 45.7487 9.03516 46.6854 9.03516C47.1359 9.03516 47.4932 9.16089 47.7573 9.41236C48.0213 9.66172 48.1533 9.95405 48.1533 10.2894C48.1533 10.719 47.9501 11.0521 47.5435 11.2889C47.7783 11.3539 47.9742 11.4869 48.1313 11.6881C48.2906 11.8872 48.3702 12.126 48.3702 12.4048C48.3702 12.8008 48.2162 13.133 47.9082 13.4012C47.6022 13.6673 47.1957 13.8004 46.6885 13.8004C45.8168 13.8004 45.25 13.3404 44.988 12.4205ZM51.2369 13.31C51.0273 13.4881 50.8251 13.6139 50.6303 13.6873C50.4374 13.7606 50.23 13.7973 50.0078 13.7973C49.6411 13.7973 49.3593 13.7082 49.1623 13.5301C48.9653 13.3499 48.8668 13.1204 48.8668 12.8417C48.8668 12.6782 48.9035 12.5295 48.9768 12.3953C49.0523 12.2592 49.1497 12.1501 49.2692 12.0685C49.3907 11.9867 49.527 11.9249 49.6778 11.883C49.7889 11.8537 49.9566 11.8253 50.1807 11.7981C50.6376 11.7437 50.9739 11.6787 51.1898 11.6032C51.1918 11.5257 51.1929 11.4764 51.1929 11.4555C51.1929 11.225 51.1395 11.0626 51.0326 10.9683C50.888 10.8405 50.6732 10.7765 50.3882 10.7765C50.1221 10.7765 49.9251 10.8237 49.7973 10.918C49.6715 11.0102 49.5783 11.1747 49.5175 11.4115L48.9643 11.3361C49.0146 11.0993 49.0974 10.9086 49.2126 10.7639C49.3279 10.6173 49.4945 10.5052 49.7124 10.4276C49.9303 10.348 50.1829 10.3082 50.4699 10.3082C50.755 10.3082 50.9865 10.3417 51.1646 10.4088C51.3428 10.4758 51.4737 10.5607 51.5575 10.6634C51.6413 10.7639 51.7 10.8918 51.7335 11.0469C51.7524 11.1433 51.7618 11.3172 51.7618 11.5686V12.323C51.7618 12.849 51.7734 13.1822 51.7964 13.3226C51.8216 13.461 51.8698 13.594 51.941 13.7218H51.3501C51.2914 13.6044 51.2536 13.4672 51.2369 13.31ZM51.1898 12.0464C50.9844 12.1303 50.6763 12.2015 50.2656 12.2602C50.033 12.2937 49.8685 12.3315 49.7721 12.3733C49.6757 12.4152 49.6014 12.4771 49.5489 12.5588C49.4966 12.6385 49.4704 12.7275 49.4704 12.826C49.4704 12.9769 49.527 13.1026 49.6401 13.2032C49.7554 13.3037 49.923 13.354 50.143 13.354C50.361 13.354 50.5548 13.3069 50.7246 13.2126C50.8943 13.1162 51.019 12.9852 51.0986 12.8197C51.1594 12.6919 51.1898 12.5033 51.1898 12.2539V12.0464ZM52.6451 10.3836H53.9496C54.2702 10.3836 54.508 10.4109 54.6631 10.4654C54.8203 10.5177 54.9544 10.6152 55.0654 10.7577C55.1786 10.9002 55.2352 11.0709 55.2352 11.2701C55.2352 11.4293 55.2017 11.5686 55.1346 11.6881C55.0696 11.8055 54.9711 11.9039 54.8391 11.9836C54.9963 12.036 55.1262 12.1345 55.2289 12.279C55.3336 12.4215 55.3861 12.5913 55.3861 12.7882C55.3651 13.1047 55.252 13.3394 55.0466 13.4924C54.8412 13.6454 54.5426 13.7218 54.1507 13.7218H52.6451V10.3836ZM53.2109 11.7887H53.8144C54.0554 11.7887 54.221 11.7761 54.3111 11.751C54.4011 11.7258 54.4818 11.6756 54.5531 11.6001C54.6243 11.5226 54.6599 11.4304 54.6599 11.3235C54.6599 11.1475 54.5971 11.0249 54.4714 10.9557C54.3477 10.8865 54.1351 10.852 53.8333 10.852H53.2109V11.7887ZM53.2109 13.2566H53.9559C54.2765 13.2566 54.4965 13.2199 54.6159 13.1466C54.7354 13.0711 54.7983 12.9423 54.8046 12.76C54.8046 12.6531 54.77 12.5546 54.7008 12.4645C54.6317 12.3723 54.5415 12.3147 54.4305 12.2916C54.3195 12.2665 54.1413 12.2539 53.8962 12.2539H53.2109V13.2566ZM58.1647 13.31C57.9552 13.4881 57.753 13.6139 57.5581 13.6873C57.3653 13.7606 57.1578 13.7973 56.9357 13.7973C56.569 13.7973 56.2871 13.7082 56.0902 13.5301C55.8932 13.3499 55.7947 13.1204 55.7947 12.8417C55.7947 12.6782 55.8313 12.5295 55.9047 12.3953C55.9801 12.2592 56.0776 12.1501 56.1971 12.0685C56.3186 11.9867 56.4548 11.9249 56.6057 11.883C56.7167 11.8537 56.8844 11.8253 57.1086 11.7981C57.5654 11.7437 57.9018 11.6787 58.1176 11.6032C58.1197 11.5257 58.1207 11.4764 58.1207 11.4555C58.1207 11.225 58.0673 11.0626 57.9604 10.9683C57.8159 10.8405 57.6011 10.7765 57.316 10.7765C57.0499 10.7765 56.853 10.8237 56.7251 10.918C56.5994 11.0102 56.5061 11.1747 56.4453 11.4115L55.8921 11.3361C55.9424 11.0993 56.0252 10.9086 56.1405 10.7639C56.2557 10.6173 56.4223 10.5052 56.6402 10.4276C56.8582 10.348 57.1107 10.3082 57.3978 10.3082C57.6828 10.3082 57.9144 10.3417 58.0925 10.4088C58.2706 10.4758 58.4015 10.5607 58.4854 10.6634C58.5692 10.7639 58.6278 10.8918 58.6614 11.0469C58.6803 11.1433 58.6896 11.3172 58.6896 11.5686V12.323C58.6896 12.849 58.7012 13.1822 58.7243 13.3226C58.7494 13.461 58.7976 13.594 58.8688 13.7218H58.2779C58.2192 13.6044 58.1815 13.4672 58.1647 13.31ZM58.1176 12.0464C57.9122 12.1303 57.6042 12.2015 57.1934 12.2602C56.9608 12.2937 56.7964 12.3315 56.7 12.3733C56.6035 12.4152 56.5292 12.4771 56.4768 12.5588C56.4244 12.6385 56.3982 12.7275 56.3982 12.826C56.3982 12.9769 56.4548 13.1026 56.5679 13.2032C56.6832 13.3037 56.8508 13.354 57.0709 13.354C57.2888 13.354 57.4826 13.3069 57.6524 13.2126C57.8221 13.1162 57.9468 12.9852 58.0264 12.8197C58.0872 12.6919 58.1176 12.5033 58.1176 12.2539V12.0464ZM59.5729 10.3836H60.1387V11.773H61.7073V10.3836H62.273V13.7218H61.7073V12.2413H60.1387V13.7218H59.5729V10.3836ZM62.8231 10.3836H65.5358V10.852H64.4608V13.7218H63.8981V10.852H62.8231V10.3836ZM68.1793 13.31C67.9698 13.4881 67.7675 13.6139 67.5727 13.6873C67.3798 13.7606 67.1724 13.7973 66.9503 13.7973C66.5836 13.7973 66.3017 13.7082 66.1047 13.5301C65.9077 13.3499 65.8092 13.1204 65.8092 12.8417C65.8092 12.6782 65.8459 12.5295 65.9193 12.3953C65.9947 12.2592 66.0922 12.1501 66.2116 12.0685C66.3332 11.9867 66.4693 11.9249 66.6202 11.883C66.7313 11.8537 66.8989 11.8253 67.1232 11.7981C67.58 11.7437 67.9163 11.6787 68.1321 11.6032C68.1342 11.5257 68.1353 11.4764 68.1353 11.4555C68.1353 11.225 68.0819 11.0626 67.975 10.9683C67.8304 10.8405 67.6156 10.7765 67.3306 10.7765C67.0645 10.7765 66.8675 10.8237 66.7396 10.918C66.6139 11.0102 66.5207 11.1747 66.4599 11.4115L65.9067 11.3361C65.957 11.0993 66.0398 10.9086 66.155 10.7639C66.2703 10.6173 66.4369 10.5052 66.6548 10.4276C66.8728 10.348 67.1253 10.3082 67.4124 10.3082C67.6973 10.3082 67.9289 10.3417 68.107 10.4088C68.2851 10.4758 68.4161 10.5607 68.4999 10.6634C68.5838 10.7639 68.6424 10.8918 68.676 11.0469C68.6948 11.1433 68.7042 11.3172 68.7042 11.5686V12.323C68.7042 12.849 68.7157 13.1822 68.7388 13.3226C68.7639 13.461 68.8122 13.594 68.8834 13.7218H68.2924C68.2338 13.6044 68.1961 13.4672 68.1793 13.31ZM68.1321 12.0464C67.9268 12.1303 67.6187 12.2015 67.208 12.2602C66.9754 12.2937 66.8109 12.3315 66.7145 12.3733C66.6181 12.4152 66.5437 12.4771 66.4914 12.5588C66.4389 12.6385 66.4128 12.7275 66.4128 12.826C66.4128 12.9769 66.4693 13.1026 66.5825 13.2032C66.6977 13.3037 66.8654 13.354 67.0854 13.354C67.3034 13.354 67.4972 13.3069 67.6669 13.2126C67.8367 13.1162 67.9613 12.9852 68.041 12.8197C68.1018 12.6919 68.1321 12.5033 68.1321 12.2539V12.0464ZM71.6024 10.3836V11.8264C71.7826 11.8264 71.9094 11.7919 71.9827 11.7227C72.056 11.6535 72.1629 11.4523 72.3033 11.1191C72.4353 10.8027 72.5537 10.6005 72.6585 10.5125C72.7612 10.4266 72.9246 10.3836 73.1489 10.3836H73.3563V10.852L73.2023 10.8488C73.0514 10.8488 72.955 10.8709 72.9131 10.9149C72.8691 10.9609 72.802 11.0982 72.7119 11.3266C72.6282 11.5446 72.5506 11.6954 72.4793 11.7793C72.4081 11.8631 72.2971 11.9396 72.1461 12.0087C72.3913 12.0737 72.6302 12.3 72.8628 12.6877L73.4852 13.7218H72.8628L72.2561 12.6877C72.1325 12.4781 72.0246 12.3408 71.9324 12.2759C71.8402 12.2109 71.7302 12.1785 71.6024 12.1785V13.7218H71.024V12.1785C70.8983 12.1785 70.7893 12.2109 70.6971 12.2759C70.6049 12.3388 70.497 12.476 70.3733 12.6877L69.7667 13.7218H69.1443L69.7635 12.6877C69.9982 12.3 70.2381 12.0737 70.4833 12.0087C70.3157 11.9312 70.1984 11.8474 70.1313 11.7572C70.0642 11.665 69.9637 11.4471 69.8296 11.1035C69.7834 10.9882 69.7342 10.9169 69.6818 10.8897C69.6273 10.8624 69.5466 10.8488 69.4397 10.8488C69.4125 10.8488 69.357 10.8499 69.2732 10.852V10.3836H69.3518C69.5697 10.3836 69.7226 10.3973 69.8107 10.4245C69.9008 10.4496 69.9804 10.5052 70.0496 10.5911C70.1208 10.6749 70.213 10.8509 70.3262 11.1191C70.4644 11.4482 70.5692 11.6483 70.6405 11.7196C70.7139 11.7908 70.8417 11.8264 71.024 11.8264V10.3836H71.6024ZM73.8907 10.3836H74.4565V12.9297L76.025 10.3836H76.6348V13.7218H76.069V11.1915L74.5005 13.7218H73.8907V10.3836ZM77.1817 10.3836H79.8944V10.852H78.8194V13.7218H78.2567V10.852H77.1817V10.3836ZM80.435 10.3836H81.0008V12.9297L82.5693 10.3836H83.1791V13.7218H82.6133V11.1915L81.0448 13.7218H80.435V10.3836ZM85.8258 10.3836H87.1303C87.4509 10.3836 87.6887 10.4109 87.8439 10.4654C88.0013 10.5177 88.1351 10.6152 88.2459 10.7577C88.3596 10.9002 88.4162 11.0709 88.4162 11.2701C88.4162 11.4293 88.3825 11.5686 88.3153 11.6881C88.2502 11.8055 88.1515 11.9039 88.0199 11.9836C88.1772 12.036 88.3067 12.1345 88.4097 12.279C88.5142 12.4215 88.5671 12.5913 88.5671 12.7882C88.5456 13.1047 88.4326 13.3394 88.2273 13.4924C88.022 13.6454 87.723 13.7218 87.3314 13.7218H85.8258V10.3836ZM86.3916 11.7887H86.9951C87.2361 11.7887 87.4016 11.7761 87.4917 11.751C87.5819 11.7258 87.6623 11.6756 87.7338 11.6001C87.8053 11.5226 87.8404 11.4304 87.8404 11.3235C87.8404 11.1475 87.7781 11.0249 87.652 10.9557C87.5284 10.8865 87.3157 10.852 87.014 10.852H86.3916V11.7887ZM86.3916 13.2566H87.1365C87.4572 13.2566 87.6773 13.2199 87.7967 13.1466C87.9162 13.0711 87.9791 12.9423 87.9856 12.76C87.9856 12.6531 87.9505 12.5546 87.8818 12.4645C87.8125 12.3723 87.7223 12.3147 87.6112 12.2916C87.5001 12.2665 87.322 12.2539 87.0768 12.2539H86.3916V13.2566Z" fill="white"/>
<defs>
<clipPath id="clip0_593_3148">
<rect width="120" height="36" rx="18" fill="white"/>
</clipPath>
</defs>
</svg>
