<svg width="24" height="24" viewBox="0 0 24 24" fill="none" xmlns="http://www.w3.org/2000/svg">
<g clip-path="url(#clip0_593_2840)">
<path d="M23.8519 12.0732C23.8519 5.44538 18.5121 0.0727539 11.926 0.0727539C5.3369 0.0742446 -0.00292969 5.44538 -0.00292969 12.0747C-0.00292969 18.063 4.35898 23.0272 10.0596 23.9276V15.5422H7.03337V12.0747H10.0626V9.42864C10.0626 6.42182 11.844 4.76113 14.5676 4.76113C15.8735 4.76113 17.2375 4.99518 17.2375 4.99518V7.94685H15.7333C14.253 7.94685 13.7909 8.8726 13.7909 9.8222V12.0732H17.0974L16.5696 15.5407H13.7894V23.9261C19.49 23.0257 23.8519 18.0615 23.8519 12.0732Z" fill="#3E77AA"/>
</g>
<defs>
<clipPath id="clip0_593_2840">
<rect width="23.8519" height="23.8519" fill="white" transform="translate(0 0.0742188)"/>
</clipPath>
</defs>
</svg>
