<svg width="120" height="36" viewBox="0 0 120 36" fill="none" xmlns="http://www.w3.org/2000/svg">
<g clip-path="url(#clip0_593_3126)">
<path d="M125.236 0H3.51378C1.57317 0 0 1.44646 0 3.23077V32.7692C0 34.5535 1.57317 36 3.51378 36H125.236C127.177 36 128.75 34.5535 128.75 32.7692V3.23077C128.75 1.44646 127.177 0 125.236 0Z" fill="#221F1F"/>
</g>
<path d="M26.3114 8.09668L26.2683 8.14761C26.2827 8.12959 26.3029 8.12175 26.3179 8.10451L26.3114 8.09668Z" fill="#00E3FF"/>
<path d="M26.3121 25.5187L26.3186 25.5109C26.3029 25.4944 26.2827 25.4866 26.2683 25.4678L26.3121 25.5187Z" fill="#00E3FF"/>
<path d="M26.2683 10.2422C26.0997 10.4323 26 10.7274 26 11.1104V24.7709C26 25.1538 26.0997 25.4483 26.2683 25.6384L33.4856 17.9399L26.2683 10.2422Z" fill="#00E3FF"/>
<path d="M38.7649 17.0482L35.9313 15.3311H35.9306L33.4856 17.9391L35.9306 20.5485L35.8759 20.5821L35.9306 20.5491L38.7643 18.832C39.5743 18.3413 39.5743 17.5389 38.7649 17.0482Z" fill="#FFE000"/>
<path d="M33.4856 17.9395L26.2683 25.6379C26.2825 25.6544 26.3024 25.6612 26.3179 25.6756C26.5881 25.9337 27.0018 25.9605 27.4715 25.6756L35.8766 20.5825L35.9313 20.5488L33.4856 17.9395Z" fill="#FF3A44"/>
<path d="M33.4856 17.9399L35.9306 15.3312L35.9313 15.3305L27.4715 10.2037C27.0018 9.91888 26.5868 9.94565 26.3172 10.2037C26.3024 10.2188 26.2825 10.2257 26.2683 10.2414L33.4856 17.9399Z" fill="#00F076"/>
<path d="M54.9723 18.4609C53.6102 18.4609 52.5002 19.5652 52.5002 21.0882C52.5002 22.6008 53.6102 23.7154 54.9723 23.7154C56.3344 23.7154 57.4443 22.6008 57.4443 21.0882C57.4443 19.5659 56.3344 18.4609 54.9723 18.4609ZM54.9723 22.6804C54.2259 22.6804 53.5825 22.0236 53.5825 21.0882C53.5825 20.1431 54.2259 19.4959 54.9723 19.4959C55.7187 19.4959 56.3621 20.1424 56.3621 21.0882C56.3627 22.0236 55.7187 22.6804 54.9723 22.6804Z" fill="white"/>
<path d="M60.3656 18.4609C59.0035 18.4609 57.8936 19.5652 57.8936 21.0882C57.8936 22.6008 59.0035 23.7154 60.3656 23.7154C61.7277 23.7154 62.8376 22.6008 62.8376 21.0882C62.8383 19.5659 61.7277 18.4609 60.3656 18.4609ZM60.3656 22.6804C59.6192 22.6804 58.9758 22.0236 58.9758 21.0882C58.9758 20.1431 59.6199 19.4959 60.3656 19.4959C61.1113 19.4959 61.7554 20.1424 61.7554 21.0882C61.756 22.0236 61.112 22.6804 60.3656 22.6804Z" fill="white"/>
<path d="M83.9151 15.835H82.8347V23.5567H83.9151V15.835Z" fill="white"/>
<path d="M48.5569 19.268V20.3819H51.0573C50.9826 21.0085 50.787 21.4662 50.4878 21.7847C50.1243 22.1725 49.5549 22.6007 48.5569 22.6007C47.0178 22.6007 45.814 21.2775 45.814 19.6351C45.814 17.9928 47.0172 16.6696 48.5569 16.6696C49.3876 16.6696 49.9937 17.0182 50.4415 17.4657L51.1782 16.6799C50.5535 16.043 49.7228 15.5557 48.5569 15.5557C46.4484 15.5557 44.6758 17.3868 44.6758 19.6358C44.6758 21.8849 46.4484 23.716 48.5569 23.716C49.6951 23.716 50.5535 23.3179 51.2252 22.5719C51.9156 21.8355 52.1305 20.8005 52.1305 19.9646C52.1305 19.7058 52.1118 19.467 52.0745 19.268H48.5569Z" fill="white"/>
<path d="M86.5691 18.4473C85.7867 18.4473 84.9767 18.8151 84.6414 19.6298L85.6008 20.0567C85.8054 19.6298 86.1876 19.4905 86.5878 19.4905C87.1463 19.4905 87.7144 19.848 87.7241 20.4836V20.5632C87.5285 20.4438 87.1096 20.2653 86.5975 20.2653C85.5635 20.2653 84.5115 20.8713 84.5115 22.0038C84.5115 23.0367 85.3589 23.7024 86.3092 23.7024C87.0356 23.7024 87.4358 23.3545 87.6874 22.9475H87.7247V23.5432H88.7677V20.5824C88.7671 19.2118 87.8077 18.4473 86.5691 18.4473ZM86.4385 22.6791C86.0846 22.6791 85.5911 22.4904 85.5911 22.0237C85.5911 21.428 86.2056 21.1994 86.7364 21.1994C87.2113 21.1994 87.4352 21.3085 87.7234 21.4575C87.6404 22.1726 87.0626 22.6791 86.4385 22.6791Z" fill="white"/>
<path d="M91.3285 21.9641H91.2912L90.0062 18.6162H88.8423L90.77 23.2955L89.671 25.8981H90.7977L93.769 18.6162H92.5671L91.3285 21.9641Z" fill="white"/>
<path d="M66.9865 19.0486H66.9486C66.706 18.7404 66.2395 18.4618 65.6521 18.4618C64.4206 18.4618 63.292 19.6162 63.292 21.0986C63.292 22.5715 64.4206 23.7156 65.6521 23.7156C66.2395 23.7156 66.706 23.4369 66.9486 23.1185H66.9859V23.4966C66.9859 24.5014 66.4821 25.0388 65.6707 25.0388C65.0086 25.0388 64.5981 24.5316 64.4302 24.1033L63.4882 24.5213C63.7585 25.2179 64.4772 26.0738 65.6714 26.0738C66.9402 26.0738 68.0128 25.2776 68.0128 23.3374V18.6203H66.9865V19.0486ZM65.7447 22.6806C64.9984 22.6806 64.3736 22.0142 64.3736 21.0986C64.3736 20.1735 64.999 19.4968 65.7447 19.4968C66.4815 19.4968 67.0599 20.1735 67.0599 21.0986C67.0605 22.0142 66.4821 22.6806 65.7447 22.6806Z" fill="white"/>
<path d="M79.8633 15.834H77.2742V23.5558H78.3545V20.63H79.8633C81.0614 20.63 82.2382 19.7048 82.2382 18.232C82.2382 16.7591 81.0614 15.834 79.8633 15.834ZM79.8916 19.5552H78.3545V16.9081H79.891C80.6991 16.9081 81.1579 17.6218 81.1579 18.2313C81.1579 18.8305 80.6991 19.5552 79.8916 19.5552Z" fill="white"/>
<path d="M69.8408 15.835H68.7585V23.5567H69.8408V15.835Z" fill="white"/>
<path d="M74.7945 20.1328C74.5893 19.546 73.9645 18.4609 72.686 18.4609C71.4172 18.4609 70.3633 19.5254 70.3633 21.0882C70.3633 22.561 71.4082 23.7154 72.8076 23.7154C73.9362 23.7154 74.5893 22.979 74.8602 22.5514L74.0205 21.9543C73.7406 22.3922 73.3584 22.6804 72.8076 22.6804C72.2569 22.6804 71.8657 22.4114 71.6135 21.8843L74.9065 20.4314L74.7945 20.1328ZM71.4359 21.0086C71.4076 19.9935 72.1726 19.476 72.7234 19.476C73.1525 19.476 73.5167 19.7045 73.6377 20.0333L71.4359 21.0086Z" fill="white"/>
<path d="M44.8962 12.2483L45.4193 12.1035C45.4589 12.3187 45.5644 12.5338 45.736 12.749C45.9094 12.9641 46.1384 13.0717 46.4231 13.0717C46.7134 13.0717 46.9424 12.9922 47.1102 12.8334C47.2779 12.6746 47.3618 12.4826 47.3618 12.2573C47.3618 12.0141 47.2732 11.821 47.096 11.6783C46.9188 11.5335 46.6776 11.4611 46.3722 11.4611H46.1092V10.9514C46.3618 10.9514 46.5551 10.9363 46.6889 10.9061C46.8227 10.874 46.9405 10.7946 47.0423 10.6679C47.146 10.5392 47.1978 10.3934 47.1978 10.2305C47.1978 10.0375 47.1272 9.86963 46.9858 9.72687C46.8463 9.58411 46.6568 9.51273 46.4174 9.51273C46.2082 9.51273 46.0291 9.56903 45.8802 9.68163C45.7332 9.79222 45.6314 9.94 45.5749 10.125C45.5183 10.308 45.49 10.4447 45.49 10.5352L44.9641 10.4085C45.0942 9.4695 45.5805 9 46.4231 9C46.8284 9 47.1498 9.12065 47.3873 9.36193C47.6248 9.6012 47.7436 9.88169 47.7436 10.2034C47.7436 10.6156 47.5607 10.9353 47.195 11.1625C47.4062 11.2249 47.5824 11.3525 47.7238 11.5455C47.8671 11.7366 47.9387 11.9658 47.9387 12.2332C47.9387 12.6132 47.8001 12.932 47.523 13.1893C47.2478 13.4446 46.8821 13.5724 46.4259 13.5724C45.6418 13.5724 45.1319 13.131 44.8962 12.2483ZM50.5174 13.1018C50.3289 13.2727 50.147 13.3934 49.9717 13.4638C49.7982 13.5341 49.6116 13.5693 49.4118 13.5693C49.0819 13.5693 48.8284 13.4839 48.6512 13.3129C48.474 13.1401 48.3854 12.9199 48.3854 12.6524C48.3854 12.4956 48.4184 12.3528 48.4844 12.2242C48.5522 12.0935 48.6399 11.9889 48.7473 11.9105C48.8566 11.8321 48.9792 11.7728 49.1149 11.7325C49.2148 11.7044 49.3657 11.6772 49.5673 11.6511C49.9783 11.5989 50.2808 11.5365 50.475 11.4641C50.4769 11.3897 50.4778 11.3424 50.4778 11.3223C50.4778 11.1012 50.4298 10.9453 50.3336 10.8549C50.2035 10.7322 50.0103 10.6709 49.754 10.6709C49.5146 10.6709 49.3373 10.7161 49.2224 10.8066C49.1093 10.8951 49.0254 11.053 48.9707 11.2801L48.4731 11.2078C48.5183 10.9805 48.5928 10.7976 48.6964 10.6588C48.8002 10.5181 48.95 10.4105 49.1461 10.3361C49.342 10.2597 49.5692 10.2215 49.8274 10.2215C50.0839 10.2215 50.2921 10.2537 50.4523 10.318C50.6126 10.3824 50.7304 10.4638 50.8058 10.5623C50.8812 10.6588 50.934 10.7815 50.9641 10.9303C50.9811 11.0228 50.9896 11.1897 50.9896 11.4309V12.1548C50.9896 12.6595 51 12.9792 51.0207 13.1139C51.0433 13.2466 51.0867 13.3743 51.1508 13.4969H50.6192C50.5664 13.3843 50.5324 13.2526 50.5174 13.1018ZM50.475 11.8894C50.2903 11.9698 50.0131 12.0382 49.6437 12.0944C49.4344 12.1266 49.2865 12.1629 49.1997 12.203C49.1131 12.2432 49.0461 12.3026 48.999 12.381C48.9519 12.4574 48.9283 12.5429 48.9283 12.6374C48.9283 12.7821 48.9792 12.9028 49.081 12.9993C49.1847 13.0958 49.3355 13.144 49.5334 13.144C49.7295 13.144 49.9038 13.0988 50.0565 13.0083C50.2092 12.9158 50.3213 12.7902 50.393 12.6314C50.4476 12.5087 50.475 12.3277 50.475 12.0885V11.8894ZM51.7842 10.2939H52.9576C53.246 10.2939 53.4599 10.32 53.5994 10.3723C53.7408 10.4226 53.8615 10.516 53.9613 10.6528C54.0631 10.7895 54.114 10.9534 54.114 11.1444C54.114 11.2972 54.0839 11.4309 54.0235 11.5455C53.9651 11.6582 53.8765 11.7527 53.7577 11.829C53.8992 11.8794 54.016 11.9739 54.1084 12.1126C54.2026 12.2493 54.2498 12.4121 54.2498 12.6012C54.2309 12.9048 54.1291 13.13 53.9444 13.2768C53.7597 13.4236 53.491 13.4969 53.1385 13.4969H51.7842V10.2939ZM52.2931 11.6421H52.836C53.0527 11.6421 53.2017 11.63 53.2828 11.6059C53.3638 11.5818 53.4364 11.5335 53.5004 11.4611C53.5645 11.3867 53.5966 11.2982 53.5966 11.1957C53.5966 11.0268 53.5401 10.9092 53.427 10.8428C53.3157 10.7764 53.1244 10.7433 52.853 10.7433H52.2931V11.6421ZM52.2931 13.0506H52.9632C53.2516 13.0506 53.4495 13.0153 53.557 12.945C53.6644 12.8726 53.721 12.749 53.7267 12.574C53.7267 12.4715 53.6956 12.377 53.6334 12.2905C53.5712 12.2021 53.4901 12.1467 53.3902 12.1246C53.2903 12.1005 53.13 12.0885 52.9095 12.0885H52.2931V13.0506ZM56.7493 13.1018C56.5608 13.2727 56.3789 13.3934 56.2036 13.4638C56.0302 13.5341 55.8435 13.5693 55.6437 13.5693C55.3139 13.5693 55.0603 13.4839 54.8832 13.3129C54.706 13.1401 54.6174 12.9199 54.6174 12.6524C54.6174 12.4956 54.6503 12.3528 54.7163 12.2242C54.7841 12.0935 54.8718 11.9889 54.9793 11.9105C55.0886 11.8321 55.2111 11.7728 55.3469 11.7325C55.4467 11.7044 55.5976 11.6772 55.7993 11.6511C56.2102 11.5989 56.5128 11.5365 56.7069 11.4641C56.7088 11.3897 56.7097 11.3424 56.7097 11.3223C56.7097 11.1012 56.6616 10.9453 56.5655 10.8549C56.4355 10.7322 56.2423 10.6709 55.9859 10.6709C55.7465 10.6709 55.5693 10.7161 55.4543 10.8066C55.3412 10.8951 55.2573 11.053 55.2026 11.2801L54.705 11.2078C54.7502 10.9805 54.8247 10.7976 54.9284 10.6588C55.032 10.5181 55.1819 10.4105 55.378 10.3361C55.574 10.2597 55.8011 10.2215 56.0594 10.2215C56.3157 10.2215 56.5241 10.2537 56.6843 10.318C56.8445 10.3824 56.9623 10.4638 57.0377 10.5623C57.1131 10.6588 57.1659 10.7815 57.1961 10.9303C57.2131 11.0228 57.2215 11.1897 57.2215 11.4309V12.1548C57.2215 12.6595 57.2319 12.9792 57.2526 13.1139C57.2752 13.2466 57.3186 13.3743 57.3827 13.4969H56.8511C56.7983 13.3843 56.7644 13.2526 56.7493 13.1018ZM56.7069 11.8894C56.5222 11.9698 56.2451 12.0382 55.8756 12.0944C55.6663 12.1266 55.5184 12.1629 55.4317 12.203C55.3449 12.2432 55.278 12.3026 55.2309 12.381C55.1838 12.4574 55.1602 12.5429 55.1602 12.6374C55.1602 12.7821 55.2111 12.9028 55.3129 12.9993C55.4166 13.0958 55.5674 13.144 55.7654 13.144C55.9613 13.144 56.1357 13.0988 56.2884 13.0083C56.4411 12.9158 56.5533 12.7902 56.6249 12.6314C56.6795 12.5087 56.7069 12.3277 56.7069 12.0885V11.8894ZM58.0161 10.2939H58.525V11.627H59.936V10.2939H60.4449V13.4969H59.936V12.0764H58.525V13.4969H58.0161V10.2939ZM60.9397 10.2939H63.3799V10.7433H62.4129V13.4969H61.9068V10.7433H60.9397V10.2939ZM65.7579 13.1018C65.5694 13.2727 65.3875 13.3934 65.2122 13.4638C65.0387 13.5341 64.8521 13.5693 64.6523 13.5693C64.3225 13.5693 64.0689 13.4839 63.8917 13.3129C63.7145 13.1401 63.6259 12.9199 63.6259 12.6524C63.6259 12.4956 63.6589 12.3528 63.7249 12.2242C63.7927 12.0935 63.8804 11.9889 63.9878 11.9105C64.0972 11.8321 64.2197 11.7728 64.3554 11.7325C64.4553 11.7044 64.6061 11.6772 64.8079 11.6511C65.2187 11.5989 65.5213 11.5365 65.7155 11.4641C65.7173 11.3897 65.7183 11.3424 65.7183 11.3223C65.7183 11.1012 65.6702 10.9453 65.5741 10.8549C65.444 10.7322 65.2508 10.6709 64.9944 10.6709C64.755 10.6709 64.5778 10.7161 64.4629 10.8066C64.3497 10.8951 64.2659 11.053 64.2112 11.2801L63.7136 11.2078C63.7588 10.9805 63.8333 10.7976 63.9369 10.6588C64.0406 10.5181 64.1905 10.4105 64.3865 10.3361C64.5826 10.2597 64.8097 10.2215 65.068 10.2215C65.3243 10.2215 65.5326 10.2537 65.6929 10.318C65.8531 10.3824 65.9709 10.4638 66.0463 10.5623C66.1217 10.6588 66.1745 10.7815 66.2047 10.9303C66.2216 11.0228 66.2301 11.1897 66.2301 11.4309V12.1548C66.2301 12.6595 66.2404 12.9792 66.2612 13.1139C66.2838 13.2466 66.3272 13.3743 66.3913 13.4969H65.8597C65.8069 13.3843 65.773 13.2526 65.7579 13.1018ZM65.7155 11.8894C65.5307 11.9698 65.2536 12.0382 64.8842 12.0944C64.6749 12.1266 64.5269 12.1629 64.4403 12.203C64.3535 12.2432 64.2866 12.3026 64.2395 12.381C64.1924 12.4574 64.1688 12.5429 64.1688 12.6374C64.1688 12.7821 64.2197 12.9028 64.3215 12.9993C64.4251 13.0958 64.576 13.144 64.7739 13.144C64.9699 13.144 65.1443 13.0988 65.297 13.0083C65.4497 12.9158 65.5618 12.7902 65.6335 12.6314C65.6881 12.5087 65.7155 12.3277 65.7155 12.0885V11.8894ZM68.8371 10.2939V11.6783C68.9992 11.6783 69.1133 11.6451 69.1792 11.5787C69.2452 11.5124 69.3414 11.3193 69.4676 10.9996C69.5864 10.696 69.6929 10.502 69.7871 10.4176C69.8795 10.3351 70.0265 10.2939 70.2283 10.2939H70.4149V10.7433L70.2763 10.7403C70.1406 10.7403 70.0539 10.7614 70.0162 10.8036C69.9766 10.8478 69.9163 10.9795 69.8352 11.1987C69.7598 11.4078 69.6901 11.5526 69.6259 11.633C69.5619 11.7135 69.462 11.7868 69.3262 11.8532C69.5468 11.9155 69.7617 12.1327 69.971 12.5047L70.5308 13.4969H69.971L69.4252 12.5047C69.314 12.3036 69.2169 12.1719 69.134 12.1095C69.0511 12.0472 68.9521 12.0161 68.8371 12.0161V13.4969H68.3168V12.0161C68.2037 12.0161 68.1057 12.0472 68.0227 12.1095C67.9398 12.1699 67.8428 12.3016 67.7315 12.5047L67.1858 13.4969H66.6259L67.183 12.5047C67.3941 12.1327 67.6099 11.9155 67.8305 11.8532C67.6797 11.7788 67.5741 11.6984 67.5138 11.6119C67.4535 11.5234 67.363 11.3143 67.2424 10.9846C67.2009 10.874 67.1566 10.8056 67.1095 10.7795C67.0604 10.7533 66.9878 10.7403 66.8917 10.7403C66.8672 10.7403 66.8173 10.7413 66.7419 10.7433V10.2939H66.8126C67.0086 10.2939 67.1462 10.307 67.2254 10.3331C67.3065 10.3572 67.3781 10.4105 67.4403 10.4929C67.5044 10.5734 67.5873 10.7423 67.6891 10.9996C67.8135 11.3153 67.9077 11.5074 67.9718 11.5757C68.0378 11.6441 68.1528 11.6783 68.3168 11.6783V10.2939H68.8371ZM70.8956 10.2939H71.4045V12.7369L72.8155 10.2939H73.364V13.4969H72.855V11.069L71.4441 13.4969H70.8956V10.2939ZM73.856 10.2939H76.2961V10.7433H75.3291V13.4969H74.823V10.7433H73.856V10.2939ZM76.7825 10.2939H77.2915V12.7369L78.7024 10.2939H79.2509V13.4969H78.742V11.069L77.331 13.4969H76.7825V10.2939ZM81.6317 10.2939H82.8052C83.0936 10.2939 83.3075 10.32 83.4472 10.3723C83.5887 10.4226 83.709 10.516 83.8088 10.6528C83.9111 10.7895 83.9619 10.9534 83.9619 11.1444C83.9619 11.2972 83.9317 11.4309 83.8712 11.5455C83.8126 11.6582 83.7238 11.7527 83.6054 11.829C83.747 11.8794 83.8635 11.9739 83.9561 12.1126C84.0501 12.2493 84.0977 12.4121 84.0977 12.6012C84.0784 12.9048 83.9767 13.13 83.792 13.2768C83.6074 13.4236 83.3384 13.4969 82.9861 13.4969H81.6317V10.2939ZM82.1407 11.6421H82.6836C82.9004 11.6421 83.0493 11.63 83.1303 11.6059C83.2114 11.5818 83.2837 11.5335 83.3481 11.4611C83.4124 11.3867 83.4439 11.2982 83.4439 11.1957C83.4439 11.0268 83.388 10.9092 83.2745 10.8428C83.1633 10.7764 82.972 10.7433 82.7006 10.7433H82.1407V11.6421ZM82.1407 13.0506H82.8108C83.0993 13.0506 83.2972 13.0153 83.4047 12.945C83.5121 12.8726 83.5688 12.749 83.5746 12.574C83.5746 12.4715 83.543 12.377 83.4813 12.2905C83.4188 12.2021 83.3378 12.1467 83.2378 12.1246C83.1379 12.1005 82.9777 12.0885 82.7571 12.0885H82.1407V13.0506Z" fill="white"/>
<defs>
<clipPath id="clip0_593_3126">
<rect width="120" height="36" rx="18" fill="white"/>
</clipPath>
</defs>
</svg>
