<svg width="26" height="25" viewBox="0 0 26 25" fill="none" xmlns="http://www.w3.org/2000/svg">
<g clip-path="url(#clip0_593_2847)">
<path d="M16.0414 7.2085H10.329C10.0116 7.20849 9.69729 7.271 9.40406 7.39246C9.11083 7.51391 8.8444 7.69193 8.61997 7.91636C8.39555 8.14079 8.21752 8.40722 8.09607 8.70045C7.97461 8.99368 7.9121 9.30796 7.91211 9.62534V15.3378C7.91211 15.9788 8.16674 16.5935 8.61999 17.0468C8.84441 17.2712 9.11084 17.4492 9.40407 17.5707C9.69729 17.6922 10.0116 17.7547 10.329 17.7547H16.0414C16.6824 17.7547 17.2971 17.5 17.7504 17.0468C18.2036 16.5935 18.4582 15.9788 18.4582 15.3378V9.62534C18.4582 9.30796 18.3957 8.99369 18.2743 8.70046C18.1528 8.40723 17.9748 8.1408 17.7504 7.91638C17.526 7.69195 17.2595 7.51393 16.9663 7.39247C16.6731 7.27101 16.3588 7.2085 16.0414 7.2085ZM13.1852 15.8061C12.5277 15.8061 11.8849 15.6112 11.3382 15.2459C10.7915 14.8806 10.3653 14.3613 10.1137 13.7538C9.86208 13.1464 9.79624 12.4779 9.92452 11.833C10.0528 11.1881 10.3694 10.5957 10.8344 10.1308C11.2993 9.66582 11.8917 9.34918 12.5366 9.2209C13.1815 9.09263 13.85 9.15846 14.4575 9.41009C15.0649 9.66172 15.5842 10.0878 15.9495 10.6346C16.3148 11.1813 16.5098 11.824 16.5098 12.4816C16.5098 12.9182 16.4238 13.3505 16.2567 13.7538C16.0896 14.1572 15.8447 14.5237 15.536 14.8324C15.2273 15.1411 14.8608 15.386 14.4575 15.5531C14.0541 15.7202 13.6218 15.8061 13.1852 15.8061ZM16.6484 9.83617C16.4919 9.83618 16.339 9.7898 16.2089 9.70289C16.0788 9.61599 15.9774 9.49246 15.9176 9.34794C15.8577 9.20341 15.842 9.04437 15.8725 8.89094C15.9031 8.73751 15.9784 8.59657 16.089 8.48595C16.1996 8.37533 16.3405 8.29999 16.494 8.26947C16.6474 8.23895 16.8064 8.25461 16.951 8.31447C17.0955 8.37433 17.219 8.47571 17.306 8.60578C17.3929 8.73586 17.4393 8.88878 17.4393 9.04522C17.4393 9.25498 17.3559 9.45616 17.2076 9.60449C17.0593 9.75282 16.8581 9.83616 16.6484 9.83617Z" fill="url(#paint0_linear_593_2847)"/>
<path d="M13.1852 10.3206C12.7578 10.3206 12.34 10.4473 11.9846 10.6848C11.6292 10.9222 11.3522 11.2597 11.1887 11.6546C11.0251 12.0495 10.9823 12.484 11.0657 12.9032C11.1491 13.3223 11.3549 13.7074 11.6571 14.0096C11.9593 14.3118 12.3444 14.5177 12.7636 14.601C13.1828 14.6844 13.6173 14.6416 14.0122 14.4781C14.407 14.3145 14.7445 14.0375 14.982 13.6822C15.2194 13.3268 15.3462 12.909 15.3462 12.4816C15.3462 11.9084 15.1185 11.3588 14.7132 10.9535C14.308 10.5482 13.7583 10.3206 13.1852 10.3206Z" fill="url(#paint1_linear_593_2847)"/>
<path d="M13.1852 0.0371094C6.31229 0.0371094 0.740723 5.60867 0.740723 12.4816C0.740723 19.3544 6.31229 24.926 13.1852 24.926C20.0581 24.926 25.6296 19.3544 25.6296 12.4816C25.6296 5.60867 20.0581 0.0371094 13.1852 0.0371094ZM19.6666 15.2281C19.6666 16.2186 19.2731 17.1686 18.5727 17.869C17.8722 18.5695 16.9223 18.963 15.9317 18.963H10.4386C9.44808 18.963 8.4981 18.5695 7.79767 17.869C7.09723 17.1686 6.70371 16.2186 6.70365 15.2281V9.73503C6.70369 8.74446 7.09721 7.79448 7.79765 7.09405C8.49809 6.39362 9.44808 6.00011 10.4386 6.00009H15.9317C16.9223 6.00013 17.8722 6.39364 18.5727 7.09407C19.2731 7.7945 19.6666 8.74447 19.6666 9.73503V15.2281Z" fill="url(#paint2_linear_593_2847)"/>
</g>
<defs>
<linearGradient id="paint0_linear_593_2847" x1="1.12964" y1="24.5371" x2="25.3538" y2="0.313008" gradientUnits="userSpaceOnUse">
<stop stop-color="#FFCB52"/>
<stop offset="0.318" stop-color="#FF6341"/>
<stop offset="0.658" stop-color="#CD39A2"/>
<stop offset="1" stop-color="#515BCA"/>
</linearGradient>
<linearGradient id="paint1_linear_593_2847" x1="1.12961" y1="24.5371" x2="25.3537" y2="0.312961" gradientUnits="userSpaceOnUse">
<stop stop-color="#FFCB52"/>
<stop offset="0.318" stop-color="#FF6341"/>
<stop offset="0.658" stop-color="#CD39A2"/>
<stop offset="1" stop-color="#515BCA"/>
</linearGradient>
<linearGradient id="paint2_linear_593_2847" x1="199.852" y1="12544" x2="12602.6" y2="141.282" gradientUnits="userSpaceOnUse">
<stop stop-color="#FFCB52"/>
<stop offset="0.318" stop-color="#FF6341"/>
<stop offset="0.658" stop-color="#CD39A2"/>
<stop offset="1" stop-color="#515BCA"/>
</linearGradient>
<clipPath id="clip0_593_2847">
<rect width="24.8889" height="24.8889" fill="white" transform="translate(0.740723 0.0371094)"/>
</clipPath>
</defs>
</svg>
