<svg width="26" height="25" viewBox="0 0 26 25" fill="none" xmlns="http://www.w3.org/2000/svg">
<g clip-path="url(#clip0_593_2856)">
<path d="M0.518555 12.4817C0.518555 19.3546 6.09009 24.9261 12.963 24.9261C19.836 24.9261 25.4075 19.3546 25.4075 12.4817C25.4075 5.60875 19.836 0.0372086 12.963 0.0372086C6.09009 0.0372086 0.518555 5.60875 0.518555 12.4817Z" fill="url(#paint0_linear_593_2856)"/>
<path d="M8.94238 13.3912L10.4188 17.4778C10.4188 17.4778 10.6034 17.86 10.8011 17.86C10.9989 17.86 13.9386 14.8016 13.9386 14.8016L17.2079 8.48708L8.99511 12.3364L8.94238 13.3912Z" fill="#C8DAEA"/>
<path d="M10.8998 14.4392L10.6163 17.4514C10.6163 17.4514 10.4976 18.3742 11.4204 17.4514C12.3432 16.5287 13.2265 15.8168 13.2265 15.8168" fill="#A9C6D8"/>
<path d="M8.96895 13.5372L5.93218 12.5476C5.93218 12.5476 5.56971 12.4005 5.68614 12.0665C5.71018 11.9977 5.75859 11.9391 5.9036 11.838C6.57666 11.369 18.359 7.13399 18.359 7.13399C18.359 7.13399 18.6918 7.02199 18.8885 7.09645C18.9783 7.13051 19.0357 7.169 19.084 7.30948C19.1016 7.36063 19.1117 7.46936 19.1103 7.57756C19.1093 7.6556 19.0998 7.72784 19.0928 7.84122C19.0211 8.99918 16.8739 17.6405 16.8739 17.6405C16.8739 17.6405 16.7455 18.1462 16.2851 18.1634C16.1172 18.1697 15.9135 18.1356 15.6699 17.9261C14.7666 17.149 11.6442 15.0507 10.9544 14.5893C10.9153 14.5633 10.9044 14.5295 10.8977 14.4965C10.888 14.448 10.9399 14.3874 10.9399 14.3874C10.9399 14.3874 16.3767 9.55465 16.5214 9.04759C16.5325 9.00825 16.4905 8.98885 16.4334 9.00583C16.0723 9.13871 9.81253 13.0914 9.12176 13.528C9.08137 13.5535 8.9681 13.5371 8.9681 13.5371" fill="white"/>
</g>
<defs>
<linearGradient id="paint0_linear_593_2856" x1="12.963" y1="24.926" x2="12.963" y2="0.0371031" gradientUnits="userSpaceOnUse">
<stop stop-color="#1D93D2"/>
<stop offset="1" stop-color="#38B0E3"/>
</linearGradient>
<clipPath id="clip0_593_2856">
<rect width="24.8889" height="24.8889" fill="white" transform="translate(0.518555 0.0371094)"/>
</clipPath>
</defs>
</svg>
