<svg width="29" height="28" viewBox="0 0 29 28" fill="none" xmlns="http://www.w3.org/2000/svg">
<path d="M14.8518 1.75C8.08696 1.75 2.60181 7.23516 2.60181 14C2.60181 20.7648 8.08696 26.25 14.8518 26.25C21.6166 26.25 27.1018 20.7648 27.1018 14C27.1018 7.23516 21.6166 1.75 14.8518 1.75ZM20.7389 10.984C20.7471 11.1125 20.7471 11.2465 20.7471 11.3777C20.7471 15.3918 17.6901 20.0156 12.1038 20.0156C10.3811 20.0156 8.78423 19.5152 7.43892 18.6539C7.68501 18.6812 7.92017 18.6922 8.17173 18.6922C9.5936 18.6922 10.9006 18.2109 11.9424 17.3961C10.6081 17.3688 9.48696 16.4938 9.10415 15.2906C9.57173 15.359 9.99282 15.359 10.4741 15.2359C9.787 15.0963 9.16943 14.7232 8.7263 14.1799C8.28317 13.6366 8.04181 12.9566 8.04321 12.2555V12.2172C8.44517 12.4441 8.91821 12.5836 9.41314 12.6027C8.99708 12.3255 8.65587 11.9498 8.41977 11.5091C8.18366 11.0683 8.05996 10.5762 8.05962 10.0762C8.05962 9.51016 8.20728 8.99336 8.47251 8.54492C9.23513 9.48373 10.1868 10.2516 11.2656 10.7985C12.3444 11.3454 13.5262 11.6592 14.7342 11.7195C14.3049 9.65508 15.8471 7.98438 17.701 7.98438C18.576 7.98438 19.3635 8.35078 19.9186 8.94141C20.6049 8.81289 21.2612 8.55586 21.8463 8.21133C21.6194 8.91406 21.1436 9.50742 20.512 9.88203C21.1245 9.81641 21.7151 9.64688 22.262 9.40898C21.8491 10.016 21.3323 10.5547 20.7389 10.984Z" fill="#5BACE3"/>
</svg>
