<svg width="26" height="25" viewBox="0 0 26 25" fill="none" xmlns="http://www.w3.org/2000/svg">
<g clip-path="url(#clip0_593_2851)">
<path fill-rule="evenodd" clip-rule="evenodd" d="M14.513 8.74122C14.9975 8.84447 15.3689 9.02861 15.6862 9.32572C16.0946 9.7113 16.3184 10.178 16.4168 10.8484C16.4833 11.2855 16.4561 11.4574 16.3011 11.5999C16.156 11.7326 15.8879 11.7374 15.7255 11.6122C15.6075 11.5237 15.5706 11.4304 15.5435 11.1774C15.5116 10.8408 15.4525 10.6052 15.3516 10.3866C15.1352 9.92247 14.7539 9.68175 14.1095 9.60319C13.8069 9.56625 13.7159 9.53203 13.6176 9.41653C13.4379 9.20283 13.5069 8.85653 13.7552 8.72878C13.8488 8.68211 13.888 8.67725 14.0947 8.6895C14.2229 8.69689 14.4123 8.71905 14.513 8.74122ZM13.9891 6.8868C15.4823 7.10536 16.6383 7.79797 17.396 8.92283C17.8216 9.55653 18.0872 10.3007 18.1782 11.0989C18.2101 11.3911 18.2101 11.9241 18.1757 12.0126C18.1436 12.096 18.0404 12.2089 17.9519 12.2556C17.8561 12.3048 17.6519 12.2997 17.5387 12.2408C17.3493 12.145 17.2927 11.9927 17.2927 11.5801C17.2927 10.9441 17.1279 10.2734 16.8426 9.75272C16.5179 9.1583 16.0456 8.66714 15.47 8.32569C14.9756 8.03091 14.245 7.81236 13.5785 7.7583C13.3374 7.73867 13.2046 7.68947 13.1136 7.58389C12.9734 7.42425 12.9586 7.20803 13.0766 7.02875C13.2044 6.83042 13.4011 6.79833 13.9891 6.8868ZM8.19625 5.3715C8.28239 5.40105 8.41519 5.46969 8.49142 5.51889C8.95867 5.82844 10.2599 7.49114 10.6855 8.32122C10.929 8.79528 11.0103 9.14644 10.934 9.4068C10.8553 9.6868 10.725 9.83419 10.1419 10.3032C9.90814 10.4922 9.68919 10.6862 9.65478 10.738C9.56631 10.8657 9.49494 11.1162 9.49494 11.2931C9.49747 11.7032 9.76308 12.4475 10.1123 13.0198C10.3828 13.4643 10.8673 14.034 11.347 14.4713C11.9103 14.9872 12.4071 15.3383 12.9681 15.6158C13.6889 15.9744 14.1291 16.0652 14.4513 15.9154C14.5324 15.8785 14.6186 15.8295 14.6456 15.8073C14.6701 15.7852 14.8597 15.5544 15.0662 15.2989C15.4646 14.7978 15.5556 14.7167 15.8288 14.6234C16.1757 14.5055 16.5298 14.5374 16.8866 14.7192C17.1572 14.8592 17.7476 15.2252 18.1287 15.4904C18.6305 15.8416 19.7029 16.716 19.8481 16.8904C20.1038 17.2048 20.1482 17.6075 19.9761 18.0522C19.7941 18.5212 19.0857 19.4005 18.5912 19.7763C18.1436 20.1152 17.8263 20.2453 17.4081 20.265C17.0637 20.2821 16.921 20.2527 16.4807 20.0709C13.0274 18.6489 10.27 16.527 8.08075 13.6115C6.93703 12.0888 6.06611 10.5095 5.47092 8.8713C5.12403 7.916 5.10692 7.50086 5.39217 7.01203C5.51525 6.80572 6.03908 6.29492 6.42039 6.01005C7.05506 5.53853 7.34769 5.36411 7.58142 5.31492C7.74125 5.2805 8.01931 5.30753 8.19625 5.3715ZM13.8194 5.10628C14.6656 5.21186 15.3493 5.41564 16.0996 5.78178C16.8376 6.14286 17.3099 6.4843 17.9346 7.10555C18.5201 7.69258 18.8448 8.13708 19.1892 8.82717C19.6689 9.78986 19.9419 10.9346 19.9885 12.1944C20.0058 12.6241 19.9934 12.7199 19.895 12.8428C19.7081 13.081 19.2973 13.0417 19.1571 12.774C19.1127 12.6855 19.1005 12.6095 19.0857 12.2655C19.061 11.7374 19.0243 11.3962 18.9504 10.9884C18.6601 9.3895 17.8926 8.11239 16.6676 7.19617C15.6468 6.42986 14.5915 6.05653 13.2092 5.97544C12.7418 5.94842 12.6607 5.9313 12.5549 5.85022C12.3581 5.69544 12.3482 5.33203 12.5376 5.16247C12.6533 5.05689 12.7344 5.04211 13.1353 5.05436C13.3448 5.06194 13.6522 5.08664 13.8194 5.10628ZM13.0741 0.0371094C19.9469 0.0371094 25.5185 5.60872 25.5185 12.4816C25.5185 19.3544 19.9469 24.926 13.0741 24.926C6.20125 24.926 0.629639 19.3544 0.629639 12.4816C0.629639 5.60872 6.20125 0.0371094 13.0741 0.0371094Z" fill="#7F4DA0"/>
</g>
<defs>
<clipPath id="clip0_593_2851">
<rect width="24.8889" height="24.8889" fill="white" transform="translate(0.629639 0.0371094)"/>
</clipPath>
</defs>
</svg>
