<svg width="26" height="25" viewBox="0 0 26 25" fill="none" xmlns="http://www.w3.org/2000/svg">
<g clip-path="url(#clip0_593_2845)">
<path d="M15.2911 12.2736L12.4961 10.9695C12.2522 10.8562 12.0518 10.9831 12.0518 11.2532V13.7097C12.0518 13.9798 12.2522 14.1067 12.4961 13.9935L15.2899 12.6893C15.535 12.5748 15.535 12.3881 15.2911 12.2736ZM13.2963 0.53479C6.69823 0.53479 1.34961 5.88341 1.34961 12.4815C1.34961 19.0795 6.69823 24.4281 13.2963 24.4281C19.8943 24.4281 25.2429 19.0795 25.2429 12.4815C25.2429 5.88341 19.8943 0.53479 13.2963 0.53479ZM13.2963 17.3348C7.18108 17.3348 7.07406 16.7835 7.07406 12.4815C7.07406 8.17941 7.18108 7.62812 13.2963 7.62812C19.4115 7.62812 19.5185 8.17941 19.5185 12.4815C19.5185 16.7835 19.4115 17.3348 13.2963 17.3348Z" fill="#FF0000"/>
</g>
<defs>
<clipPath id="clip0_593_2845">
<rect width="24.8889" height="24.8889" fill="white" transform="translate(0.851807 0.0371094)"/>
</clipPath>
</defs>
</svg>
