<svg width="33" height="33" viewBox="0 0 33 33" fill="none" xmlns="http://www.w3.org/2000/svg">
<path fill-rule="evenodd" clip-rule="evenodd" d="M4 17C4 16.8527 4.05644 16.7114 4.1569 16.6072C4.25736 16.503 4.39361 16.4445 4.53568 16.4445H18.1702L14.7987 12.9495C14.6981 12.8451 14.6416 12.7037 14.6416 12.5562C14.6416 12.4087 14.6981 12.2672 14.7987 12.1629C14.8992 12.0586 15.0357 12 15.1779 12C15.3202 12 15.4566 12.0586 15.5572 12.1629L19.8426 16.6067C19.8925 16.6583 19.9321 16.7196 19.9591 16.7871C19.9861 16.8546 20 16.9269 20 17C20 17.073 19.9861 17.1454 19.9591 17.2129C19.9321 17.2804 19.8925 17.3417 19.8426 17.3933L15.5572 21.8371C15.4566 21.9414 15.3202 22 15.1779 22C15.0357 22 14.8992 21.9414 14.7987 21.8371C14.6981 21.7328 14.6416 21.5913 14.6416 21.4438C14.6416 21.2963 14.6981 21.1548 14.7987 21.0505L18.1702 17.5555H4.53568C4.39361 17.5555 4.25736 17.4969 4.1569 17.3928C4.05644 17.2886 4 17.1473 4 17Z" fill="black"/>
</svg>
