<svg width="23" height="265" viewBox="0 0 23 265" fill="none" xmlns="http://www.w3.org/2000/svg">
<line x1="12.25" y1="-1.09278e-08" x2="12.25" y2="120" stroke="#898888" stroke-width="0.5"/>
<line x1="12.25" y1="145" x2="12.25" y2="265" stroke="#898888" stroke-width="0.5"/>
<path d="M3.384 130.64C4.208 130.64 4.84 130.848 5.28 131.264C5.72 131.672 5.94 132.28 5.94 133.088V137H5.124V136.016C4.932 136.344 4.648 136.6 4.272 136.784C3.904 136.968 3.464 137.06 2.952 137.06C2.248 137.06 1.688 136.892 1.272 136.556C0.856 136.22 0.648 135.776 0.648 135.224C0.648 134.688 0.84 134.256 1.224 133.928C1.616 133.6 2.236 133.436 3.084 133.436H5.088V133.052C5.088 132.508 4.936 132.096 4.632 131.816C4.328 131.528 3.884 131.384 3.3 131.384C2.9 131.384 2.516 131.452 2.148 131.588C1.78 131.716 1.464 131.896 1.2 132.128L0.816 131.492C1.136 131.22 1.52 131.012 1.968 130.868C2.416 130.716 2.888 130.64 3.384 130.64ZM3.084 136.388C3.564 136.388 3.976 136.28 4.32 136.064C4.664 135.84 4.92 135.52 5.088 135.104V134.072H3.108C2.028 134.072 1.488 134.448 1.488 135.2C1.488 135.568 1.628 135.86 1.908 136.076C2.188 136.284 2.58 136.388 3.084 136.388ZM11.2681 130.844C11.8521 130.844 12.3721 130.976 12.8281 131.24C13.2921 131.496 13.6521 131.86 13.9081 132.332C14.1641 132.796 14.2921 133.328 14.2921 133.928C14.2921 134.544 14.1561 135.092 13.8841 135.572C13.6201 136.044 13.2481 136.412 12.7681 136.676C12.2881 136.94 11.7361 137.072 11.1121 137.072C10.0641 137.072 9.25209 136.704 8.67609 135.968C8.10009 135.232 7.81209 134.216 7.81209 132.92C7.81209 131.568 8.06809 130.532 8.58009 129.812C9.10009 129.092 9.90809 128.604 11.0041 128.348L13.8361 127.7L13.9801 128.48L11.3161 129.092C10.4121 129.292 9.74809 129.648 9.32409 130.16C8.90009 130.664 8.66809 131.412 8.62809 132.404C8.88409 131.916 9.24009 131.536 9.69609 131.264C10.1521 130.984 10.6761 130.844 11.2681 130.844ZM11.1361 136.364C11.5761 136.364 11.9681 136.264 12.3121 136.064C12.6641 135.856 12.9361 135.568 13.1281 135.2C13.3281 134.832 13.4281 134.416 13.4281 133.952C13.4281 133.488 13.3321 133.08 13.1401 132.728C12.9481 132.376 12.6761 132.104 12.3241 131.912C11.9801 131.712 11.5841 131.612 11.1361 131.612C10.6881 131.612 10.2881 131.712 9.93609 131.912C9.59209 132.104 9.32009 132.376 9.12009 132.728C8.92809 133.08 8.83209 133.488 8.83209 133.952C8.83209 134.416 8.92809 134.832 9.12009 135.2C9.32009 135.568 9.59609 135.856 9.94809 136.064C10.3001 136.264 10.6961 136.364 11.1361 136.364ZM18.7223 137.06C18.1143 137.06 17.5663 136.924 17.0783 136.652C16.5903 136.372 16.2063 135.988 15.9263 135.5C15.6463 135.012 15.5063 134.46 15.5063 133.844C15.5063 133.228 15.6463 132.676 15.9263 132.188C16.2063 131.7 16.5903 131.32 17.0783 131.048C17.5663 130.776 18.1143 130.64 18.7223 130.64C19.3303 130.64 19.8783 130.776 20.3663 131.048C20.8543 131.32 21.2343 131.7 21.5063 132.188C21.7863 132.676 21.9263 133.228 21.9263 133.844C21.9263 134.46 21.7863 135.012 21.5063 135.5C21.2343 135.988 20.8543 136.372 20.3663 136.652C19.8783 136.924 19.3303 137.06 18.7223 137.06ZM18.7223 136.304C19.1703 136.304 19.5703 136.204 19.9223 136.004C20.2823 135.796 20.5623 135.504 20.7623 135.128C20.9623 134.752 21.0623 134.324 21.0623 133.844C21.0623 133.364 20.9623 132.936 20.7623 132.56C20.5623 132.184 20.2823 131.896 19.9223 131.696C19.5703 131.488 19.1703 131.384 18.7223 131.384C18.2743 131.384 17.8703 131.488 17.5103 131.696C17.1583 131.896 16.8783 132.184 16.6702 132.56C16.4703 132.936 16.3703 133.364 16.3703 133.844C16.3703 134.324 16.4703 134.752 16.6702 135.128C16.8783 135.504 17.1583 135.796 17.5103 136.004C17.8703 136.204 18.2743 136.304 18.7223 136.304Z" fill="#898888"/>
</svg>
