<svg width="9" height="34" viewBox="0 0 9 34" fill="none" xmlns="http://www.w3.org/2000/svg">
<path d="M7.83958 33.597L0.209025 18.0252C0.0750057 17.7517 0 17.3849 0 17.0029C0 16.621 0.0750057 16.2541 0.209025 15.9806L7.83958 0.40303C7.90201 0.275482 7.97665 0.174107 8.0591 0.104885C8.14155 0.0356636 8.23013 0 8.31962 0C8.40911 0 8.4977 0.0356636 8.58014 0.104885C8.66259 0.174107 8.73723 0.275482 8.79966 0.40303C8.9281 0.6646 9 1.01575 9 1.38139C9 1.74704 8.9281 2.09818 8.79966 2.35975L1.62411 17.0029L8.79966 31.6432C8.92766 31.9046 8.99928 32.2551 8.99928 32.6201C8.99928 32.985 8.92766 33.3355 8.79966 33.597C8.73723 33.7245 8.66259 33.8259 8.58014 33.8951C8.4977 33.9643 8.40911 34 8.31962 34C8.23013 34 8.14155 33.9643 8.0591 33.8951C7.97665 33.8259 7.90201 33.7245 7.83958 33.597Z" fill="#2D2323"/>
</svg>
