<svg width="9" height="34" viewBox="0 0 9 34" fill="none" xmlns="http://www.w3.org/2000/svg">
<path d="M1.16042 33.597L8.79098 18.0252C8.92499 17.7517 9 17.3849 9 17.0029C9 16.621 8.92499 16.2541 8.79098 15.9806L1.16042 0.40303C1.09799 0.275482 1.02335 0.174107 0.9409 0.104885C0.858452 0.0356636 0.769869 0 0.680379 0C0.590888 0 0.502304 0.0356636 0.419856 0.104885C0.337408 0.174107 0.262769 0.275482 0.200339 0.40303C0.0719032 0.6646 0 1.01575 0 1.38139C0 1.74704 0.0719032 2.09818 0.200339 2.35975L7.37589 17.0029L0.200339 31.6432C0.0723438 31.9046 0.00071907 32.2551 0.00071907 32.6201C0.00071907 32.985 0.0723438 33.3355 0.200339 33.597C0.262769 33.7245 0.337408 33.8259 0.419856 33.8951C0.502304 33.9643 0.590888 34 0.680379 34C0.769869 34 0.858452 33.9643 0.9409 33.8951C1.02335 33.8259 1.09799 33.7245 1.16042 33.597Z" fill="#2D2323"/>
</svg>
