<svg width="28" height="28" viewBox="0 0 28 28" fill="none" xmlns="http://www.w3.org/2000/svg">
<path d="M19.5 16C20.9587 16 22.3576 16.5795 23.3891 17.6109C24.4205 18.6424 25 20.0413 25 21.5C25 22.9587 24.4205 24.3576 23.3891 25.3891C22.3576 26.4205 20.9587 27 19.5 27C18.0413 27 16.6424 26.4205 15.6109 25.3891C14.5795 24.3576 14 22.9587 14 21.5C14 20.0413 14.5795 18.6424 15.6109 17.6109C16.6424 16.5795 18.0413 16 19.5 16ZM14 2.25C14.96 2.24991 15.8835 2.618 16.5802 3.27844C17.2769 3.93888 17.6938 4.84137 17.745 5.8L17.75 6H23.25C23.44 6.00006 23.6229 6.07224 23.7618 6.20197C23.9006 6.3317 23.9851 6.5093 23.998 6.69888C24.011 6.88846 23.9515 7.07589 23.8316 7.2233C23.7117 7.37071 23.5402 7.4671 23.352 7.493L23.25 7.5H22.191L21.557 15.332C21.0774 15.1722 20.5806 15.0692 20.077 15.025L20.687 7.5H7.313L8.524 22.432C8.56973 22.9954 8.82587 23.521 9.24148 23.9042C9.65709 24.2874 10.2017 24.5001 10.767 24.5L13.733 24.501C14.02 25.052 14.384 25.557 14.81 26.001L10.767 26C9.82484 26.0001 8.91719 25.6455 8.22457 25.0068C7.53195 24.3681 7.10513 23.4921 7.029 22.553L5.808 7.5H4.75C4.56876 7.49999 4.39366 7.43436 4.25707 7.31523C4.12048 7.19611 4.03165 7.03155 4.007 6.852L4 6.75C4.00001 6.56876 4.06564 6.39366 4.18477 6.25707C4.30389 6.12048 4.46845 6.03165 4.648 6.007L4.75 6H10.25C10.25 5.00544 10.6451 4.05161 11.3483 3.34835C12.0516 2.64509 13.0054 2.25 14 2.25ZM17.024 19.024C16.9303 19.1178 16.8776 19.2449 16.8776 19.3775C16.8776 19.5101 16.9303 19.6372 17.024 19.731L18.793 21.501L17.026 23.267C16.9321 23.3608 16.8793 23.488 16.8792 23.6206C16.8791 23.7533 16.9317 23.8806 17.0255 23.9745C17.1193 24.0684 17.2465 24.1212 17.3791 24.1213C17.5118 24.1214 17.6391 24.0688 17.733 23.975L19.5 22.208L21.27 23.977C21.3161 24.0248 21.3713 24.0628 21.4323 24.0891C21.4933 24.1153 21.5589 24.129 21.6253 24.1296C21.6917 24.1302 21.7575 24.1176 21.819 24.0924C21.8804 24.0673 21.9363 24.0301 21.9832 23.9832C22.0301 23.9363 22.0673 23.8804 22.0924 23.819C22.1176 23.7575 22.1302 23.6917 22.1296 23.6253C22.129 23.5589 22.1153 23.4933 22.0891 23.4323C22.0628 23.3713 22.0248 23.3161 21.977 23.27L20.208 21.5L21.979 19.73C22.0701 19.6357 22.1205 19.5094 22.1193 19.3783C22.1182 19.2472 22.0656 19.1218 21.9729 19.0291C21.8802 18.9364 21.7548 18.8838 21.6237 18.8827C21.4926 18.8815 21.3663 18.9319 21.272 19.023L19.501 20.793L17.731 19.023C17.6372 18.9293 17.5101 18.8766 17.3775 18.8766C17.2449 18.8766 17.1178 18.9293 17.024 19.023V19.024ZM14 3.75C13.4299 3.74993 12.881 3.9663 12.4642 4.35537C12.0475 4.74444 11.794 5.27721 11.755 5.846L11.75 6H16.25L16.245 5.846C16.206 5.27721 15.9525 4.74444 15.5358 4.35537C15.119 3.9663 14.5701 3.74993 14 3.75Z" fill="#A6A5A5"/>
</svg>
