<svg width="78" height="78" viewBox="0 0 78 78" fill="none" xmlns="http://www.w3.org/2000/svg">
<path d="M77.688 35.0613V30.9468H62.556C59.397 30.9468 57.9735 32.8968 57.7395 34.7883V34.8468V30.9468H53.2935V35.0613H57.72H77.688ZM57.72 36.5433L53.274 36.2898V41.0283C53.274 42.5103 52.533 42.9588 49.959 42.9588H46.41C44.2845 42.9588 43.3875 42.3543 43.3875 41.0283V35.8413L38.883 35.5098V41.3988H38.7855C38.532 39.6828 37.8885 37.6938 33.5985 37.4013L19.5 36.4653C19.5 38.6298 21.0405 39.9168 23.4585 40.1703L33.2865 41.1648C34.0665 41.2233 34.632 41.4573 34.632 42.1008C34.632 42.8028 34.047 42.8808 33.15 42.8808H19.3245V36.4653L14.82 36.1728V47.0538H33.1695C37.2645 47.0538 38.571 44.9283 38.766 43.1538H38.8635C39.3705 45.9618 41.8275 47.0538 45.981 47.0538H50.5635C55.419 47.0538 57.72 45.5718 57.72 42.1008V36.5433ZM72.0135 37.3818L57.915 36.5433C57.915 38.7078 59.3385 40.1508 61.7565 40.3458L71.799 41.1258C72.579 41.1843 73.047 41.3793 73.047 42.0228C73.047 42.6273 72.501 42.8613 71.37 42.8613H57.681V47.0538H71.6625C76.0695 47.0538 78 45.5133 78 42.0033C78 38.8443 76.2645 37.6548 72.0135 37.3818ZM38.883 30.9468H43.3875V35.0613H38.883V30.9468ZM12.3435 35.9778L7.449 35.4903L0 47.0538H5.4795L12.3435 35.9778ZM38.064 30.9468H24.3165C21.1185 30.9468 19.7145 32.9358 19.383 34.8468V30.9468H11.7585C10.686 30.9468 10.179 31.2783 9.672 32.0193L7.566 35.0613H38.064V30.9468Z" fill="#898888"/>
</svg>
