<svg width="1219" height="93" viewBox="0 0 1219 93" fill="none" xmlns="http://www.w3.org/2000/svg">
<path d="M171.688 42.0613V37.9468H156.556C153.397 37.9468 151.974 39.8968 151.74 41.7883V41.8468V37.9468H147.294V42.0613H151.72H171.688ZM151.72 43.5433L147.274 43.2898V48.0283C147.274 49.5103 146.533 49.9588 143.959 49.9588H140.41C138.285 49.9588 137.388 49.3543 137.388 48.0283V42.8413L132.883 42.5098V48.3988H132.785C132.532 46.6828 131.889 44.6938 127.598 44.4013L113.5 43.4653C113.5 45.6298 115.041 46.9168 117.458 47.1703L127.286 48.1648C128.066 48.2233 128.632 48.4573 128.632 49.1008C128.632 49.8028 128.047 49.8808 127.15 49.8808H113.325V43.4653L108.82 43.1728V54.0538H127.17C131.264 54.0538 132.571 51.9283 132.766 50.1538H132.864C133.371 52.9618 135.827 54.0538 139.981 54.0538H144.563C149.419 54.0538 151.72 52.5718 151.72 49.1008V43.5433ZM166.014 44.3818L151.915 43.5433C151.915 45.7078 153.339 47.1508 155.757 47.3458L165.799 48.1258C166.579 48.1843 167.047 48.3793 167.047 49.0228C167.047 49.6273 166.501 49.8613 165.37 49.8613H151.681V54.0538H165.662C170.069 54.0538 172 52.5133 172 49.0033C172 45.8443 170.265 44.6548 166.014 44.3818ZM132.883 37.9468H137.388V42.0613H132.883V37.9468ZM106.344 42.9778L101.449 42.4903L94 54.0538H99.4795L106.344 42.9778ZM132.064 37.9468H118.316C115.118 37.9468 113.715 39.9358 113.383 41.8468V37.9468H105.759C104.686 37.9468 104.179 38.2783 103.672 39.0193L101.566 42.0613H132.064V37.9468Z" fill="#898888"/>
<path d="M29.1953 46.9259C29.1797 44.2618 30.3867 42.254 32.8242 40.7736C31.4609 38.8204 29.3984 37.7462 26.6797 37.5392C24.1055 37.3361 21.2891 39.0392 20.2578 39.0392C19.168 39.0392 16.6758 37.6095 14.7148 37.6095C10.668 37.672 6.36719 40.8361 6.36719 47.2736C6.36719 49.1759 6.71484 51.1408 7.41016 53.1642C8.33984 55.8283 11.6914 62.3556 15.1875 62.2501C17.0156 62.2072 18.3086 60.9533 20.6875 60.9533C22.9961 60.9533 24.1914 62.2501 26.2305 62.2501C29.7578 62.1993 32.7891 56.2658 33.6719 53.5939C28.9414 51.3634 29.1953 47.0626 29.1953 46.9259ZM25.0898 35.0118C27.0703 32.6603 26.8906 30.5197 26.832 29.7501C25.082 29.8517 23.0586 30.9415 21.9062 32.2814C20.6367 33.7189 19.8906 35.4962 20.0508 37.5001C21.9414 37.6447 23.668 36.672 25.0898 35.0118Z" fill="#898888"/>
<g clip-path="url(#clip0_1459_1103)">
<path d="M244 64H243.403L247.152 53.6724H252.25C253.152 53.6724 254.049 52.9012 254.348 52.1311L258.402 40.8762C259 39.0273 257.951 37.486 256.152 37.486H249.097L239.951 63.5375C231.848 61.5326 226 54.2875 226 45.5012C226 37.0224 231.549 29.9276 239.201 27.6151L235.749 37.4849L229.901 53.6724H233.651L238.45 39.9477H241.298L236.498 53.6724H240.248L244.748 40.875C245.346 39.0262 244.449 37.4849 242.498 37.4849H239.498L243.247 27H243.998C253.9 27 261.998 35.3227 261.998 45.5C261.998 55.6773 253.9 64 243.998 64H244ZM254.951 39.7974H252.098L248.049 51.0523H250.902L254.951 39.7974Z" fill="#898888"/>
</g>
<g clip-path="url(#clip1_1459_1103)">
<path d="M406.784 36.5058C406.462 36.0774 406.139 35.7551 404.528 35.6489C404.1 35.6489 402.81 35.5389 400.554 35.5389C394.639 35.5389 390.559 37.3665 388.516 40.9117C389.054 37.3665 385.615 35.5389 378.092 35.5389C369.281 35.5389 363.692 39.0841 361.436 46.2845C360.579 48.9728 360.579 51.1227 361.223 52.8441H359.073C357.462 52.9465 355.312 53.0564 353.917 53.0564C350.694 53.0564 348.646 52.518 347.896 51.445C347.251 50.4781 347.251 48.6505 348.112 45.9622C349.507 41.5563 352.84 39.6226 358.213 39.6226C361.007 39.6226 363.692 39.9449 363.692 39.9449C364.014 39.9449 364.23 39.5164 364.23 39.1941L364.124 38.8718L363.908 37.3665C363.802 36.3996 363.047 35.8612 361.758 35.6489C360.579 35.5389 359.608 35.5389 358.319 35.5389H358.213C351.229 35.5389 346.284 37.9049 343.6 42.417C344.567 37.795 341.34 35.5389 333.927 35.5389C329.737 35.5389 326.723 35.6489 325.005 35.8612C323.61 36.0774 322.749 36.6158 322.427 37.5826L321.782 39.5164C321.676 39.8387 321.892 40.0548 322.321 40.0548C322.643 40.0548 323.932 39.8387 326.082 39.7287C328.191 39.55 330.306 39.4425 332.422 39.4064C336.505 39.4064 338.333 40.4833 337.688 42.5232C337.579 42.9554 337.256 43.2777 336.722 43.3839C332.854 44.0285 329.737 44.4607 327.478 44.783C321.032 45.6399 317.27 47.5737 316.303 50.8004C314.904 55.2063 318.343 57.3524 326.617 57.3524C330.704 57.3524 334.249 57.1401 337.044 56.6016C338.655 56.2794 339.516 55.9571 339.838 54.884L341.34 49.9397C341.234 54.884 344.563 57.3524 351.657 57.3524C354.668 57.3524 357.568 57.2462 358.964 57.0301C360.363 56.8178 361.113 56.4955 361.436 55.4186L361.758 53.9171C363.263 56.2794 366.596 57.4624 371.647 57.4624C377.019 57.4624 380.136 57.3524 380.993 57.0301C381.304 56.9604 381.593 56.8168 381.837 56.6115C382.08 56.4063 382.271 56.1454 382.392 55.8509L382.498 55.5286L383.143 53.4849C383.253 53.1626 383.037 52.9465 382.605 52.9465L379.169 53.1626C376.909 53.2726 375.086 53.3787 373.793 53.3787C371.324 53.3787 369.713 53.1626 368.742 52.8403C367.347 52.3019 366.702 51.335 366.808 49.7236L377.664 48.3282C382.498 47.6836 385.831 46.1784 387.443 43.8161L383.681 56.3855C383.575 56.6016 383.681 56.8178 383.788 56.9239C383.898 57.0301 384.11 57.1401 384.542 57.1401H389.054C389.805 57.1401 390.127 56.7078 390.237 56.3855L394.211 42.5232C394.749 40.6994 396.361 39.8387 399.368 39.8387C402.06 39.8387 403.993 39.8387 405.283 39.9449H405.389C405.605 39.9449 406.033 39.8387 406.356 39.3003L407 37.3665C407 37.0442 407 36.7219 406.784 36.5058ZM334.356 53.0602C332.96 53.2764 330.917 53.3825 328.338 53.3825C323.716 53.3825 321.782 52.4156 322.321 50.5881C322.749 49.2989 323.932 48.4382 325.866 48.2221L336.293 46.8267L334.356 53.0602ZM382.392 41.8748C381.96 43.2739 379.92 44.2408 376.265 44.7792L367.563 45.9584L367.775 45.2077C368.53 42.8417 369.497 41.3402 370.786 40.4795C372.075 39.6188 374.225 39.1903 377.232 39.1903C381.213 39.2965 382.931 40.1572 382.388 41.8748H382.392Z" fill="#898888"/>
</g>
<g clip-path="url(#clip2_1459_1103)">
<path d="M687.615 39.8392L687.8 50.2697H687.709L684.648 39.8392H679.631V52.9784H682.95L682.765 42.1846H682.856L686.131 52.9784H690.934V39.8392H687.615ZM624.367 39.8392L621.859 53.115H625.484L627.334 41.0366H627.411L629.217 53.115H632.813L630.333 39.8392H624.367ZM644.654 39.8392L643 49.9646H642.909L641.24 39.8392H635.762L635.5 53.115H638.867L638.958 41.1732H638.987L641.237 53.115H644.648L646.898 41.1732H646.989L647.08 53.115H650.446L650.126 39.8392H644.654ZM616.195 49.3456C616.333 49.6478 616.286 50.1012 616.242 50.3133C616.151 50.7667 615.828 51.2055 614.941 51.2055C614.083 51.2055 613.595 50.7202 613.595 50.0111V48.7236H610V49.7379C610 52.7197 612.371 53.5974 614.897 53.5974C617.314 53.5974 619.332 52.7662 619.656 50.5865C619.841 49.4356 619.703 48.68 619.656 48.4068C619.027 45.6052 613.904 44.8205 613.551 43.2599C613.504 43.0248 613.504 42.7829 613.551 42.5478C613.642 42.109 613.948 41.6556 614.759 41.6556C615.569 41.6556 616.013 42.141 616.013 42.8501V43.6522H619.379V42.728C619.379 39.8363 616.733 39.3975 614.85 39.3975C612.462 39.3975 610.491 40.1851 610.138 42.3182C610.017 42.9098 610.033 43.521 610.185 44.1056C610.72 46.8462 615.525 47.6483 616.198 49.3426L616.195 49.3456ZM659.876 49.3456C660.014 49.6478 659.967 50.0576 659.923 50.3133C659.832 50.7667 659.509 51.2055 658.622 51.2055C657.764 51.2055 657.276 50.7202 657.276 50.0111V48.7236H653.681V49.7379C653.681 52.6732 656.007 53.5683 658.53 53.5683C660.948 53.5683 662.922 52.7662 663.242 50.54C663.427 49.3891 663.289 48.6771 663.242 48.3603C662.708 45.6052 657.629 44.774 657.276 43.2599C657.229 43.0248 657.229 42.7829 657.276 42.5478C657.353 42.109 657.673 41.6556 658.483 41.6556C659.247 41.6556 659.738 42.141 659.738 42.8501V43.6522H663.057V42.728C663.057 39.8363 660.457 39.3975 658.574 39.3975C656.186 39.3975 654.259 40.1386 653.907 42.3182C653.816 42.8937 653.816 43.4371 653.936 44.1056C654.488 46.8462 659.2 47.6018 659.873 49.3426L659.876 49.3456ZM671.182 51.1184C672.131 51.1184 672.39 50.4964 672.484 50.1506C672.531 50.014 672.531 49.7873 672.531 49.6507V39.8421H675.941V49.3921C675.941 49.6507 675.941 50.1477 675.894 50.2697C675.68 52.7662 673.691 53.5683 671.226 53.5683C668.762 53.5683 666.791 52.7662 666.559 50.2697C666.559 50.1477 666.512 49.6478 666.512 49.3921V39.8421H669.922V49.6507C669.922 49.8338 669.922 50.014 669.969 50.1506C669.969 50.4993 670.245 51.1184 671.176 51.1184H671.182ZM699.197 50.9818C700.193 50.9818 700.499 50.3598 700.59 50.014C700.637 49.8774 700.637 49.6507 700.637 49.5286V47.6076H699.244V45.6546H704.003V49.2119C704.003 49.4851 704.003 49.6507 703.956 50.1041C703.727 52.5424 701.615 53.3881 699.244 53.3881C696.856 53.3881 694.762 52.5395 694.532 50.1041C694.485 49.6507 694.485 49.4821 694.485 49.2119V43.6115C694.485 43.3994 694.532 42.946 694.532 42.7338C694.838 40.2374 696.859 39.4352 699.244 39.4352C701.615 39.4352 703.68 40.2374 703.956 42.7338C704.003 43.1262 704.003 43.6115 704.003 43.6115V44.0649H700.637V43.3093C700.637 43.3093 700.637 42.9925 700.59 42.8094C700.543 42.5071 700.269 41.8416 699.244 41.8416C698.248 41.8416 697.99 42.4636 697.899 42.8094C697.852 42.9925 697.852 43.2192 697.852 43.4459V49.5315C697.852 49.6972 697.852 49.8803 697.899 50.0169C697.899 50.3656 698.251 50.9847 699.2 50.9847L699.197 50.9818Z" fill="#898888"/>
</g>
<g clip-path="url(#clip3_1459_1103)">
<path d="M782.702 49.6858V42.2101H784.377V48.1643H787.321V49.6805H782.702V49.6858ZM769.247 45.0257L773.345 41.7776C773.732 42.0985 774.113 42.4247 774.5 42.7519L770.611 45.7843L771.455 46.5429L775.339 43.4001L776.499 44.3797C775.21 45.4316 773.91 46.4771 772.61 47.5173L773.448 48.2759L777.342 45.0278L777.337 42.2111H779.018V48.1654H782.068V49.6816H777.444V46.8702C776.075 47.9497 774.71 49.0334 773.346 50.1129L769.248 46.8702C769.049 47.8998 768.351 48.7965 767.443 49.2661C767.051 49.4765 766.621 49.6093 766.186 49.6593C765.934 49.6922 765.681 49.6816 765.429 49.6816H762.835V42.2111H765.826C766.605 42.2218 767.363 42.4991 767.974 43.0027C768.598 43.5203 769.044 44.23 769.247 45.0278V45.0257ZM764.413 43.7252V48.2738H765.724C765.999 48.2634 766.269 48.1917 766.515 48.0637C766.76 47.9357 766.976 47.7543 767.147 47.5321C767.436 47.1585 767.613 46.7067 767.658 46.2314C767.703 45.756 767.613 45.2775 767.4 44.8536C767.264 44.5846 767.074 44.3487 766.842 44.1616C766.611 43.9746 766.343 43.8406 766.057 43.7688C765.826 43.7135 765.59 43.7241 765.359 43.7241L764.413 43.7252ZM774.253 29H774.715C777.309 29.0329 779.854 29.7023 782.148 30.9423C784.386 32.157 786.325 33.8812 787.82 35.9838C789.839 38.8181 790.95 42.2305 790.999 45.7461V46.255C790.946 50.4883 789.36 54.5484 786.551 57.6386C785.035 59.304 783.209 60.6373 781.181 61.5587C779.154 62.4801 776.967 62.9706 774.751 63.0011H774.252C772.301 62.9723 770.372 62.5863 768.553 61.861C766.261 60.9396 764.197 59.5056 762.508 57.6625C760.819 55.8195 759.549 53.6133 758.788 51.2031C758.29 49.6031 758.024 47.9361 757.998 46.2561V45.7471C758.052 42.5214 759.002 39.3721 760.737 36.6883C762.355 34.1666 764.589 32.1282 767.214 30.7776C769.4 29.648 771.805 29.0408 774.251 29.0011L774.253 29ZM774.043 30.7436C770.818 30.8379 767.712 32.0201 765.202 34.1085C763.147 35.8106 761.571 38.0479 760.637 40.5887C759.279 44.3128 759.373 48.434 760.9 52.0881C761.956 54.5859 763.639 56.7484 765.777 58.3526C767.718 59.813 769.977 60.7595 772.356 61.1088C774.36 61.4073 776.422 61.2862 778.378 60.7433C781.051 59.9983 783.468 58.4957 785.353 56.4061C787.239 54.3166 788.518 51.724 789.045 48.9229C789.457 46.7267 789.401 44.4643 788.879 42.2929C788.273 39.7878 787.059 37.4821 785.352 35.5919C783.645 33.7016 781.501 32.2886 779.119 31.4852C777.482 30.9357 775.764 30.6847 774.043 30.7436Z" fill="#898888"/>
</g>
<g clip-path="url(#clip4_1459_1103)">
<path d="M500.895 41.2227C499.197 41.2227 497.265 41.9724 496.085 43.4735L496.086 43.4704L496.085 43.4712L496.086 41.4584H492.035V55.5063H496.085V47.5128C496.085 46.0741 497.256 44.5449 499.425 44.5449C501.101 44.5449 502.835 45.6551 502.835 47.5128V55.5063H506.886V46.798C506.886 43.567 504.459 41.2227 500.895 41.2227Z" fill="#898888"/>
<path d="M535.673 41.4578L532.012 51.0268L528.35 41.4578H523.723L529.792 55.5011H534.231L540.3 41.4578H535.673Z" fill="#898888"/>
<path d="M479.943 45.69C480.633 44.8079 481.731 44.2901 483.059 44.2901C484.518 44.2901 485.626 45.084 486.198 46.2558L479.121 49.0518C478.928 47.6169 479.314 46.4945 479.943 45.69ZM487.725 51.1863C486.02 52.3877 485.046 52.6744 483.491 52.6744C482.092 52.6744 480.997 52.2608 480.225 51.5353L490.58 47.4443C490.354 45.9197 489.747 44.5578 488.811 43.5221C487.451 42.0172 485.437 41.2211 482.985 41.2211C478.531 41.2211 475.173 44.3502 475.173 48.483C475.173 52.7231 478.539 55.7442 483.431 55.7442C486.173 55.7442 488.975 54.507 490.286 53.0615L487.725 51.1863Z" fill="#898888"/>
<path d="M474.788 51.9635H465.581V37.2563H461.476V55.5055H474.788V51.9635Z" fill="#898888"/>
<path d="M547.572 44.5266C545.31 44.5266 543.667 46.1592 543.667 48.4815C543.667 50.6989 545.407 52.4364 547.626 52.4364C549.889 52.4364 551.531 50.7589 551.531 48.4815C551.531 46.2641 549.791 44.5266 547.572 44.5266ZM547.572 55.7419C543.142 55.7419 539.671 52.5991 539.671 48.4815C539.671 44.4102 543.166 41.2211 547.626 41.2211C552.056 41.2211 555.526 44.3639 555.526 48.4815C555.526 52.552 552.032 55.7419 547.572 55.7419Z" fill="#898888"/>
<path d="M516.387 44.5266C514.125 44.5266 512.484 46.1592 512.484 48.4815C512.484 50.6989 514.223 52.4364 516.442 52.4364C518.705 52.4364 520.346 50.7589 520.346 48.4815C520.346 46.2641 518.607 44.5266 516.387 44.5266ZM516.387 55.7419C511.957 55.7419 508.487 52.5991 508.487 48.4815C508.487 44.4102 511.981 41.2211 516.442 41.2211C520.872 41.2211 524.342 44.3639 524.342 48.4815C524.342 52.552 520.848 55.7419 516.387 55.7419Z" fill="#898888"/>
</g>
<g clip-path="url(#clip5_1459_1103)">
<path d="M860.185 54.0808C855.861 54.0808 852.356 50.6698 852.356 46.4625C852.356 42.2549 855.861 38.8472 860.185 38.8472C861.709 38.8472 863.132 39.27 864.334 40.003L860.185 46.4625L867.995 42.0748C867.147 40.7594 865.93 39.626 864.458 38.7659C862.585 37.6751 859.98 37 857.099 37C852.99 37 849.385 38.4527 847.375 40.6282C845.886 42.2364 845 44.2605 845 46.4623C845 48.6658 845.886 50.6913 847.375 52.3007C849.39 54.4789 852.942 55.9231 856.983 55.9231C861.024 55.9231 864.574 54.4777 866.591 52.3007C866.702 52.1808 866.809 52.0598 866.91 51.9342L866.605 50.8236C865.188 52.7915 862.841 54.0808 860.185 54.0808Z" fill="#898888"/>
<path d="M886.081 55.4655L882.803 43.5679C882.276 41.6453 880.477 40.2322 878.334 40.2322C877.778 40.2322 877.246 40.3288 876.752 40.5036L869.694 43.0003H876.953L878.193 47.5069C876.99 46.4995 875.423 45.8865 873.707 45.8865C870.3 45.8865 867.541 48.1078 867.541 50.8479C867.541 53.5882 870.3 55.8127 873.707 55.8127C876.16 55.8127 878.329 54.6445 879.668 52.8497L880.387 55.4655H886.081ZM876.081 53.6176C874.509 53.6176 873.235 52.3792 873.235 50.8479C873.235 49.3188 874.509 48.0793 876.081 48.0793C877.653 48.0793 878.928 49.3188 878.928 50.8479C878.928 52.3792 877.653 53.6176 876.081 53.6176Z" fill="#898888"/>
<path d="M899.448 40.2336C899.018 40.2336 898.611 40.3262 898.248 40.4918L893.717 42.5463C893.492 41.234 892.32 40.2336 890.907 40.2336C890.479 40.2336 890.071 40.3262 889.703 40.4918L884.171 42.9997H888.061V55.4651H893.755V44.3865C893.755 43.6221 894.391 42.9998 895.179 42.9998C895.963 42.9998 896.603 43.6221 896.603 44.3865V55.4651H902.295V42.9997C902.295 41.471 901.02 40.2338 899.448 40.2338" fill="#898888"/>
<path d="M920.796 48.0786C920.796 52.4114 917.187 55.923 912.734 55.923C908.278 55.923 904.666 52.4114 904.666 48.0786C904.666 43.7469 908.278 40.2336 912.734 40.2336C917.187 40.2336 920.796 43.7471 920.796 48.0786ZM913.068 42.6145C912.814 41.6914 911.839 41.1435 910.89 41.3916C909.943 41.6387 909.377 42.5882 909.631 43.5111L912.397 53.5423C912.653 54.4663 913.626 55.0137 914.574 54.7694C915.523 54.5195 916.087 53.5706 915.832 52.6478L913.068 42.6145Z" fill="#898888"/>
<path d="M935.154 40.2336C934.723 40.2336 934.314 40.3262 933.945 40.4918L929.418 42.5463C929.195 41.234 928.023 40.2336 926.61 40.2336C926.182 40.2336 925.774 40.3262 925.405 40.4918L919.875 42.9997H923.764V55.4651H929.457V44.3865C929.457 43.6221 930.094 42.9998 930.882 42.9998C931.668 42.9998 932.304 43.6221 932.304 44.3865V55.4651H938V42.9997C938 41.471 936.724 40.2338 935.154 40.2338" fill="#898888"/>
</g>
<path d="M1003.81 63.1319C1003.3 63.0074 1002.85 62.6405 1002.58 62.1387L1002.43 61.8606L1002.4 58.2754L1002.37 54.6903L998.706 54.6594L995.039 54.6284L994.75 54.4608C994.437 54.2793 994.135 53.9712 993.959 53.6541C993.858 53.4701 993.849 53.2 993.849 50.3015V47.149H1001.93H1010.02V55.1539V63.1587L1007.01 63.1681C1005.35 63.1733 1003.92 63.157 1003.81 63.1319Z" fill="#898888"/>
<path d="M1012.65 54.4046C1012.63 54.3581 1012.62 52.7623 1012.63 50.8584L1012.65 47.3969L1014.43 47.3586C1016.28 47.3191 1016.48 47.2944 1017.34 46.9998C1019.51 46.255 1020.97 43.9429 1020.8 41.4925C1020.64 38.968 1019.13 37.1634 1016.74 36.6316C1016.14 36.4973 1014.87 36.4948 1014.27 36.6266C1012.11 37.1008 1010.49 38.6434 1009.95 40.752C1009.87 41.0592 1009.84 41.5575 1009.81 42.8691C1009.79 44.4068 1009.77 44.5847 1009.68 44.5872C1009.11 44.6026 1002.68 44.5731 1002.67 44.555C1002.61 44.5009 1002.66 40.8063 1002.72 40.3193C1003.24 36.2308 1005.89 32.5944 1009.69 30.7442C1011.57 29.8251 1013.31 29.4271 1015.47 29.4204C1017.58 29.4137 1019.36 29.7896 1021.11 30.61C1024.63 32.267 1026.99 35.2927 1027.75 39.1497C1028.63 43.6035 1027.27 47.967 1024.07 50.9904C1022.2 52.7463 1020.01 53.8358 1017.39 54.298C1016.78 54.406 1016.32 54.4333 1014.67 54.4587C1013.02 54.484 1012.68 54.4747 1012.65 54.4046V54.4046Z" fill="#898888"/>
<path d="M1039.85 58.2489C1039.78 58.2211 1039.66 58.1365 1039.6 58.0609C1039.47 57.9257 1039.47 57.8365 1039.47 52.5898V47.256L1039.79 46.894C1040.47 46.1294 1041.66 45.4205 1042.76 45.1306C1043.2 45.0153 1043.46 44.9902 1044.2 44.99C1045.27 44.9897 1045.64 45.0694 1046.49 45.4841C1048.58 46.5008 1049.62 48.8903 1049 51.2422C1048.54 52.9962 1047.06 54.3026 1045.18 54.6273C1044.84 54.6848 1044.25 54.7222 1043.66 54.7222C1042.78 54.7222 1042.7 54.7129 1042.64 54.6026C1042.6 54.5369 1042.57 54.1595 1042.57 53.7641C1042.57 53.3686 1042.6 52.9913 1042.64 52.9255C1042.7 52.8156 1042.78 52.806 1043.63 52.806C1044.9 52.806 1045.41 52.6513 1046.03 52.0761C1047.18 51.0189 1047.25 49.0191 1046.19 47.8776C1045.57 47.2164 1044.71 46.9375 1043.68 47.0623C1043.09 47.1348 1042.32 47.5026 1041.96 47.8888L1041.7 48.1672V53.1631C1041.7 56.9664 1041.68 58.1767 1041.62 58.2332C1041.53 58.3187 1040.05 58.3319 1039.85 58.2489Z" fill="#898888"/>
<path d="M1034.63 54.6273C1034.11 54.5175 1033.65 54.2985 1033.32 54.0151C1032.96 53.714 1032.63 53.0355 1032.55 52.4654C1032.48 51.9932 1032.46 43.5489 1032.52 43.3803C1032.57 43.2535 1034.53 42.2776 1034.65 42.3218C1034.72 42.3476 1034.74 42.6357 1034.75 43.7319L1034.77 45.1097L1036.1 45.1263C1037.67 45.146 1037.51 45.0201 1037.48 46.2223L1037.47 47.0259L1036.12 47.0599C1035.38 47.0786 1034.76 47.0995 1034.75 47.1062C1034.74 47.113 1034.74 48.2382 1034.75 49.6066C1034.77 51.9729 1034.78 52.1051 1034.9 52.3109C1034.97 52.439 1035.14 52.584 1035.3 52.6663C1035.56 52.7972 1035.66 52.8054 1036.87 52.8054C1037.79 52.8054 1038.18 52.8267 1038.24 52.8796C1038.29 52.9297 1038.31 53.2161 1038.31 53.7635C1038.31 54.3109 1038.29 54.5973 1038.24 54.6474C1038.13 54.7569 1035.15 54.7403 1034.63 54.6273Z" fill="#898888"/>
<path d="M1056.61 54.561L1056.42 54.401V48.1457V41.8905L1057.43 41.3789C1057.99 41.0976 1058.48 40.8821 1058.53 40.9001C1058.6 40.9276 1058.62 42.018 1058.62 47.7894C1058.62 53.9847 1058.61 54.6496 1058.52 54.6835C1058.46 54.7042 1058.06 54.721 1057.61 54.721C1056.84 54.721 1056.8 54.715 1056.61 54.561Z" fill="#898888"/>
<path d="M1061.02 54.6598C1060.67 54.5223 1060.68 54.6998 1060.7 49.7411L1060.71 45.1721H1061.78H1062.85L1062.86 49.8969C1062.87 53.6359 1062.86 54.632 1062.8 54.6711C1062.69 54.7378 1061.19 54.7283 1061.02 54.6598Z" fill="#898888"/>
<path d="M1065.26 54.6353C1064.94 54.4605 1064.95 54.5118 1064.95 50.6852C1064.94 47.709 1064.96 47.0846 1065.03 46.9455C1065.15 46.7261 1065.84 46.0748 1066.21 45.8264C1066.68 45.5197 1067.5 45.1546 1068.05 45.0099C1068.7 44.8374 1069.91 44.8218 1070.55 44.9777C1072.2 45.3756 1073.48 46.6318 1073.91 48.2601C1074.02 48.7129 1074.03 48.9438 1074.03 51.696C1074.03 54.3295 1074.02 54.6506 1073.93 54.6841C1073.74 54.7573 1071.99 54.7256 1071.91 54.6474C1071.86 54.5919 1071.84 53.8769 1071.84 51.8105C1071.84 49.2336 1071.83 49.0212 1071.71 48.6523C1071.39 47.6282 1070.61 47.0138 1069.55 46.9488C1068.73 46.8981 1068.04 47.1307 1067.44 47.6583L1067.2 47.8747V51.1786C1067.2 53.3378 1067.18 54.5239 1067.14 54.602C1067.08 54.7112 1067 54.7214 1066.24 54.7194C1065.68 54.7179 1065.37 54.6913 1065.26 54.6353Z" fill="#898888"/>
<path d="M1076.31 54.66C1075.96 54.5207 1075.97 54.8508 1075.99 48.1034L1076 41.8962L1077.05 41.3723C1077.63 41.0842 1078.12 40.8709 1078.15 40.8984C1078.18 40.9259 1078.21 42.7888 1078.23 45.0383L1078.26 49.1283L1079.97 47.1349L1081.69 45.1414H1082.93C1083.97 45.1414 1084.18 45.1562 1084.18 45.2293C1084.18 45.2777 1083.32 46.2822 1082.27 47.4615C1081.22 48.6408 1080.36 49.6409 1080.37 49.6838C1080.38 49.7267 1081.35 50.8261 1082.52 52.127C1083.68 53.4279 1084.64 54.5371 1084.65 54.5919C1084.65 54.68 1084.51 54.6935 1083.38 54.7083L1082.11 54.725L1081.97 54.5748C1081.9 54.4922 1081.04 53.478 1080.08 52.3211C1079.11 51.1642 1078.3 50.216 1078.28 50.2139C1078.25 50.2118 1078.23 51.1715 1078.23 52.3467C1078.23 53.7013 1078.21 54.5271 1078.16 54.6029C1078.11 54.7121 1078.03 54.7221 1077.27 54.7185C1076.82 54.7163 1076.38 54.69 1076.31 54.66Z" fill="#898888"/>
<path d="M1051.64 50.9046C1051.49 50.7292 1050.65 48.9546 1050.68 48.8665C1050.71 48.8019 1051.1 48.789 1052.64 48.8021L1054.57 48.8184L1054.59 49.8646C1054.6 50.6603 1054.59 50.9228 1054.53 50.9609C1054.48 50.9884 1053.84 51.0113 1053.09 51.0118C1051.88 51.0127 1051.73 51.0014 1051.64 50.9046Z" fill="#898888"/>
<path d="M1060.64 42.9463C1060.43 42.7987 1060.29 42.3588 1060.32 41.9281C1060.35 41.4654 1060.58 41.1172 1061.02 40.846C1061.29 40.6833 1061.39 40.6594 1061.77 40.661C1062.27 40.663 1062.59 40.7906 1062.89 41.1016C1063.35 41.5817 1063.38 42.4492 1062.95 42.9308C1062.87 43.0256 1062.73 43.0389 1061.82 43.0389C1060.99 43.0389 1060.75 43.0196 1060.64 42.9463Z" fill="#898888"/>
<g clip-path="url(#clip6_1459_1103)">
<path d="M1140.04 51.2531V35.3734H1142.96V51.2531H1140.04Z" fill="#898888"/>
<path d="M1150.42 39.7323C1146.68 39.7323 1144.09 42.4821 1144.09 45.6296C1144.09 49.1423 1146.91 51.5622 1150.45 51.5622C1153.81 51.5622 1156.72 49.1868 1156.72 45.622C1156.72 42.6243 1154.3 39.7323 1150.42 39.7323ZM1150.38 42.4232C1152.34 42.4232 1153.78 43.8801 1153.78 45.6397C1153.78 47.5053 1152.19 48.8663 1150.44 48.8663C1148.36 48.8663 1147.06 47.293 1147.06 45.6447C1147.06 43.838 1148.53 42.4232 1150.38 42.4232Z" fill="#898888"/>
<path d="M1164.05 39.7323C1160.31 39.7323 1157.72 42.4821 1157.72 45.6296C1157.72 49.1423 1160.53 51.5622 1164.07 51.5622C1167.43 51.5622 1170.35 49.1868 1170.35 45.622C1170.35 43.5227 1169.4 42.5913 1169.4 42.5913L1170.21 42.3262V40.0623H1166.07C1166.07 40.0623 1165.17 39.7323 1164.05 39.7323ZM1164.01 42.4232C1165.97 42.4232 1167.41 43.8801 1167.41 45.6397C1167.41 47.5053 1165.82 48.8663 1164.06 48.8663C1161.99 48.8663 1160.68 47.293 1160.68 45.6447C1160.68 43.838 1162.16 42.4232 1164.01 42.4232Z" fill="#898888"/>
<path d="M1167.39 52.0286C1167.39 53.8942 1165.8 55.2652 1164.04 55.2652C1161.97 55.2652 1160.66 53.6768 1160.66 52.0286H1157.7C1157.7 55.5413 1160.51 57.9612 1164.05 57.9612C1167.41 57.9612 1170.33 55.5934 1170.33 52.0286H1167.39Z" fill="#898888"/>
<path d="M1171.52 51.2524V40.0623H1174.43V51.2524H1171.52Z" fill="#898888"/>
<path d="M1177.26 51.253V42.5693H1175.7V40.0629H1177.26V36.6266H1180.18V40.0629H1181.78V42.5693H1180.18V51.253H1177.26Z" fill="#898888"/>
<path d="M1174.9 36.8844C1174.9 37.9046 1174.03 38.7316 1172.97 38.7316C1171.9 38.7316 1171.04 37.9046 1171.04 36.8844C1171.04 35.8642 1171.9 35.0372 1172.97 35.0372C1174.03 35.0372 1174.9 35.8642 1174.9 36.8844Z" fill="#898888"/>
<path d="M1188.34 39.7246C1184.58 39.7246 1182.16 42.4759 1182.16 45.7305C1182.16 49.0939 1184.59 51.5697 1188.4 51.5697C1191.95 51.5697 1193.7 49.4473 1193.7 49.4473L1191.75 47.5801C1191.75 47.5801 1190.28 49.0986 1188.43 49.0986C1186.9 49.0986 1185.67 48.2783 1185.24 46.774H1194.33V46.0059C1194.33 42.9411 1192.47 39.7246 1188.34 39.7246ZM1188.24 42.1805C1189.59 42.1805 1190.96 42.868 1191.27 44.5101H1185.16C1185.4 43.3558 1186.46 42.1805 1188.24 42.1805Z" fill="#898888"/>
<path d="M1201.62 51.5716C1197.85 51.5716 1195.28 48.8271 1195.28 45.591C1195.28 42.2514 1198.18 39.723 1201.6 39.723C1204.91 39.723 1206.6 41.9562 1206.6 41.9562L1204.57 43.8933C1204.57 43.8933 1203.39 42.4369 1201.59 42.4369C1199.59 42.4369 1198.23 43.8976 1198.23 45.6338C1198.23 47.4671 1199.68 48.8737 1201.57 48.8737C1203.4 48.8737 1204.57 47.4197 1204.57 47.4197L1206.62 49.3557C1206.62 49.3557 1204.94 51.5716 1201.62 51.5716Z" fill="#898888"/>
<path d="M1207.68 51.2613V35.3331H1210.6V41.1852C1210.6 41.1852 1211.71 39.7234 1214.14 39.7234C1217.19 39.7234 1218.96 41.8947 1218.96 44.6717V51.2613H1216.05V45.0933C1216.05 43.2277 1214.83 42.4537 1213.49 42.4537C1211.96 42.4537 1210.6 43.288 1210.6 45.2377V51.2613H1207.68Z" fill="#898888"/>
</g>
<defs>
<clipPath id="clip0_1459_1103">
<rect width="36" height="37" fill="white" transform="translate(226 27)"/>
</clipPath>
<clipPath id="clip1_1459_1103">
<rect width="91" height="91" fill="white" transform="translate(316 1)"/>
</clipPath>
<clipPath id="clip2_1459_1103">
<rect width="94" height="93" fill="white" transform="translate(610)"/>
</clipPath>
<clipPath id="clip3_1459_1103">
<rect width="33" height="34" fill="white" transform="translate(758 29)"/>
</clipPath>
<clipPath id="clip4_1459_1103">
<rect width="95" height="19" fill="white" transform="translate(461 37)"/>
</clipPath>
<clipPath id="clip5_1459_1103">
<rect width="93" height="19" fill="white" transform="translate(845 37)"/>
</clipPath>
<clipPath id="clip6_1459_1103">
<rect width="79" height="23" fill="white" transform="translate(1140 35)"/>
</clipPath>
</defs>
</svg>
