<svg width="110" height="24" viewBox="0 0 110 24" fill="none" xmlns="http://www.w3.org/2000/svg">
<path fill-rule="evenodd" clip-rule="evenodd" d="M74.0942 13.8239H68.6878V20.6983H64.232V3.32749H68.6878V9.83232H74.0942V3.32749H78.6221V20.6983H74.0942V13.8239ZM62.6981 6.65383L59.1919 8.94529C58.5344 8.28003 57.7309 7.02342 55.7587 7.02342C54.5169 7.02342 52.2525 8.13219 52.2525 11.6064C52.2525 15.2284 53.7865 16.8546 56.1239 16.7806C57.9501 16.7067 58.3153 16.3371 59.411 15.0076L62.625 17.4459C61.4563 18.9982 59.9954 21.0669 55.9778 20.995C51.6681 20.9211 47.8697 17.4459 47.8697 11.6064C47.9428 6.80166 51.2298 2.88398 55.7587 2.88398C58.6075 2.9579 60.945 4.21452 62.6981 6.65383ZM33.1144 17.7426L35.6711 15.0795C36.6937 16.1164 38.6659 17.0763 40.0538 17.0763C41.5147 17.0763 42.4643 16.9275 42.4643 15.599C42.4643 14.8588 42.1721 14.4902 41.4417 14.2674C40.0538 13.8989 38.3007 13.3814 36.6937 12.7151C34.7945 11.7532 33.6258 10.7193 33.6258 7.98436C33.6258 3.40141 38.6659 2.66223 40.1999 2.73615C41.8069 2.73615 44.2174 3.40039 46.0436 5.39721C45.094 6.21032 44.9479 6.50599 43.4139 8.28003C42.3913 7.09734 41.2956 6.43207 39.9808 6.43207C38.8851 6.43207 37.7894 6.9495 37.8624 8.05827C37.9355 8.87138 38.1546 9.31489 38.8851 9.46273C39.6886 9.68448 40.4921 9.98016 42.9026 10.5715C45.2401 11.1629 46.6279 12.9359 46.5549 15.3023C46.4819 18.8514 43.9983 20.7722 40.6382 20.7722C37.6433 20.7722 35.2328 20.032 33.1144 17.7426ZM16.2408 11.6064C16.2408 9.83232 16.46 8.28003 17.1174 7.09734C17.7017 5.84072 18.3592 4.87978 19.2357 4.28844C20.1123 3.69709 20.9888 3.25358 21.7923 3.03182C22.5958 2.81007 23.3993 2.66223 24.1298 2.66223C24.8603 2.66223 25.6638 2.81007 26.5403 3.03182C27.4642 3.28119 28.3321 3.70779 29.0969 4.28844C29.9735 4.87978 30.7039 5.84072 31.2153 7.09734C31.7996 8.28003 32.0918 9.83232 32.0918 11.6064C32.0918 13.5282 31.7996 15.0795 31.2153 16.2632C30.7039 17.5209 29.9735 18.4808 29.0969 19.0721C28.2204 19.6635 27.3438 20.107 26.4673 20.3298C25.6638 20.5505 24.8603 20.6983 24.1298 20.6983C23.4724 20.6983 22.6689 20.5495 21.7923 20.3298C20.9888 20.107 20.1123 19.6645 19.2357 19.0721C18.3592 18.4808 17.7017 17.5198 17.1174 16.2632C16.46 15.0795 16.2408 13.5272 16.2408 11.6064ZM20.4044 11.8271C20.4044 12.7151 20.5505 13.5272 20.7697 14.1186C20.9888 14.7838 21.281 15.3013 21.7193 15.598C22.0115 16.0415 22.4497 16.2612 22.888 16.41C23.2532 16.5589 23.6915 16.6328 24.1298 16.6328C24.5681 16.6328 25.0063 16.5589 25.4446 16.41C25.9054 16.2631 26.3123 15.9803 26.6134 15.598C26.9786 15.3013 27.2708 14.7838 27.563 14.1186C27.7512 13.3694 27.8493 12.6 27.8551 11.8271C27.8551 10.8672 27.708 10.128 27.563 9.53664C27.3239 8.97462 27.0039 8.45151 26.6134 7.98436C26.2481 7.68868 25.8829 7.39301 25.4446 7.24517C25.0063 7.09733 24.5681 7.09734 24.1298 7.09734C23.6915 7.09734 23.2532 7.09733 22.888 7.24517C22.4497 7.40216 22.0508 7.65448 21.7193 7.98436C21.281 8.42787 20.9888 8.87138 20.7697 9.53664C20.5505 10.128 20.4044 10.8672 20.4044 11.8271ZM0.828125 20.032V2.95791H8.93623C11.4939 2.95791 14.2686 4.73195 14.2686 7.54085C14.2686 9.31489 13.9044 10.4976 12.2233 11.3846C14.0494 12.1977 15.0721 12.6412 14.999 15.9675C14.999 19.22 12.2233 20.1809 7.91358 20.1809L0.828125 20.032ZM5.13784 13.1586V16.8546H8.35186C9.73974 16.8546 10.5432 16.1893 10.5432 15.0076C10.5432 13.8249 9.59364 13.1586 8.49795 13.1586H5.13784ZM4.99175 6.50598V9.90624H7.98663C9.00928 9.90624 9.95887 9.24097 9.95887 8.20611C9.95887 7.17126 9.15537 6.50598 7.98663 6.50598H4.99175Z" fill="#898888"/>
<path fill-rule="evenodd" clip-rule="evenodd" d="M102.549 17.9622V15.7446H94.2938V19.2937L93.051 18.4057C92.1108 17.5347 91.3211 16.5107 90.7146 15.3761C90.2032 14.1934 89.9101 13.0097 89.9101 11.6062C89.9101 10.2757 90.2032 9.09301 90.7146 7.91031C91.2989 6.80154 92.1014 5.69276 93.051 4.87965L94.2938 3.99263V7.9832H102.549V3.84377L103.718 4.73079C104.776 5.5726 105.647 6.6304 106.274 7.83537C106.786 8.94414 107.077 10.2008 107.077 11.6052C107.077 13.0097 106.786 14.3412 106.274 15.45C105.647 16.6549 104.776 17.7124 103.718 18.5535L102.549 19.4395V17.9622ZM104.01 7.02227V16.2621C104.301 15.8186 104.667 15.3761 104.885 14.8586C105.397 13.8977 105.617 12.7889 105.617 11.6062C105.617 10.4975 105.397 9.38868 104.885 8.42774C104.667 7.90928 104.301 7.46578 104.01 7.02227ZM94.2948 9.46157V14.2663H102.403V9.46157H94.2948ZM92.7609 15.9664V7.31691C92.5407 7.76042 92.2496 8.13001 92.0294 8.57352C91.6652 9.46054 91.374 10.5693 91.374 11.6042C91.374 12.714 91.6652 13.8228 92.0294 14.7088C92.2496 15.1523 92.5407 15.5239 92.7609 15.9664ZM98.5305 1.28672e-05C101.745 1.28672e-05 104.594 1.33055 106.639 3.40026C108.684 5.5439 109.999 8.42671 109.999 11.6052C109.999 14.8576 108.683 17.7415 106.639 19.8851C104.593 21.9548 101.745 23.2843 98.5305 23.2843C95.3165 23.2843 92.4667 21.9548 90.4224 19.8851C88.3041 17.7415 86.9902 14.8586 86.9902 11.6052C86.9902 8.42671 88.3041 5.5439 90.4224 3.40026C91.4855 2.32046 92.7493 1.46411 94.1408 0.880554C95.5323 0.296995 97.0242 -0.00226151 98.5305 1.28672e-05ZM105.617 4.43512C103.79 2.58716 101.307 1.47838 98.5315 1.47838C95.7558 1.47838 93.2722 2.58716 91.374 4.43512C89.6199 6.357 88.4512 8.7963 88.4512 11.6052C88.4512 14.4151 89.6199 16.9273 91.374 18.8502C93.2722 20.6972 95.7547 21.8059 98.5315 21.8059C101.308 21.8059 103.791 20.6972 105.617 18.8502C107.444 16.9273 108.54 14.4151 108.54 11.6052C108.54 8.7963 107.444 6.357 105.617 4.43512Z" fill="#898888"/>
</svg>
