<svg width="103" height="28" viewBox="0 0 103 28" fill="none" xmlns="http://www.w3.org/2000/svg">
<path fill-rule="evenodd" clip-rule="evenodd" d="M21.095 2.196C19.7642 1.7886 18.8014 3.27707 19.5891 4.14502C23.0911 6.02318 25.4547 9.70811 25.4547 13.9073C25.4547 20.0383 20.4468 25.0345 14.2842 25.0345H14.1792C8.06859 24.9814 3.1138 20.0029 3.1138 13.9073C3.1138 9.77951 5.4074 6.14718 8.80377 4.23359C9.52144 3.22393 8.69874 2.01942 7.56097 2.14286C3.44638 4.48157 0.662109 8.87558 0.662109 13.9067C0.662109 21.3308 6.72022 27.4081 14.1787 27.4607H14.2837C21.7777 27.4607 27.9053 21.3662 27.9053 13.9067C27.9058 8.91101 25.1571 4.53471 21.095 2.196ZM33.7189 20.6577H36.3626V8.25506H33.7189V20.6577Z" fill="#898888"/>
<path fill-rule="evenodd" clip-rule="evenodd" d="M14.1785 3.70331C14.196 3.70331 14.196 3.72102 14.2135 3.72102C15.2287 3.72102 16.052 2.87023 16.052 1.86057C16.0521 1.61623 16.0046 1.37428 15.9122 1.14852C15.8198 0.92277 15.6844 0.717648 15.5137 0.544874C15.3429 0.372101 15.1402 0.235065 14.9171 0.141594C14.6941 0.0481239 14.4549 4.94222e-05 14.2135 0.000122153H14.1785C13.6973 0.0103886 13.2392 0.210803 12.9021 0.55849C12.5651 0.906177 12.3759 1.37353 12.375 1.86057C12.375 2.87023 13.1802 3.68504 14.1785 3.70331ZM44.9936 8.25618H39.0055V20.6583H41.6492V10.6835H44.696C46.2545 10.6835 47.3222 11.4634 47.2872 13.2879V20.6583H49.9309V12.5268C49.9309 9.81551 47.6898 8.25618 44.9936 8.25618ZM14.1785 6.60885C13.9875 6.60834 13.7983 6.64603 13.6217 6.71976C13.4451 6.79349 13.2847 6.90181 13.1496 7.03848C13.0146 7.17515 12.9076 7.33749 12.8347 7.51616C12.7618 7.69483 12.7246 7.88632 12.7251 8.0796V20.8188C12.7251 21.6153 13.3733 22.2718 14.1785 22.2718C14.9662 22.2718 15.6319 21.6153 15.6319 20.8188V8.07905C15.6299 7.68966 15.4761 7.31681 15.2039 7.04152C14.9318 6.76622 14.5633 6.61074 14.1785 6.60885ZM70.6964 7.9379C67.5095 8.07961 65.4615 10.2235 65.1465 14.3158C64.9359 17.435 66.5993 20.6942 70.6964 20.9777C70.7839 20.9959 70.8714 20.9959 70.9765 20.9959C72.8325 21.0131 74.0928 20.8542 75.3186 20.3926L75.3536 18.0539C73.7427 18.7104 72.0617 18.9218 70.6964 18.6572C69.068 18.3555 67.9121 17.3459 67.9646 15.6094H75.7562C76.7715 11.0029 74.3728 7.95506 70.6964 7.9379ZM73.6207 13.4124H67.7896V13.377C67.7896 11.552 69.1024 10.0818 70.6964 10.0818C72.3062 10.0818 73.6207 11.552 73.6207 13.377V13.4124ZM89.5884 20.6588H92.2315V8.25618H89.5884V20.6588ZM83.1797 13.4833C78.75 12.7216 79.8708 8.92929 86.611 10.7017V8.50472C84.7381 7.90247 81.7263 7.74305 80.1153 8.50472C76.7895 10.1526 77.034 15.3083 82.549 15.8746C86.1384 16.318 85.5608 20.4994 77.9979 18.0367V20.464C80.3784 21.1376 83.3547 21.421 85.4208 20.464C86.7861 19.6132 87.3118 18.4618 87.3287 17.3276C87.3823 15.3437 86.0865 13.9261 83.1797 13.4833ZM99.9531 8.25618H94.2626V10.7017H97.31V20.6588H99.9531V10.7017H103V8.25618H99.9531ZM57.985 8.34475C57.6174 8.29161 57.2149 8.27445 56.7948 8.27445H52.6451V20.6771H56.8473C57.2499 20.6771 57.6344 20.6588 57.985 20.6057C62.3452 20.128 63.3249 16.8853 63.3074 14.6701C63.2905 11.2508 61.5395 8.77042 57.985 8.34475ZM57.985 18.2144C57.5994 18.3029 57.1623 18.3561 56.6536 18.3561H55.2527V10.5777H56.6192C57.1268 10.5777 57.5819 10.6309 57.9845 10.7372C59.788 11.1983 60.6812 12.6507 60.6982 14.5992C60.7157 15.8746 60.1911 17.6996 57.985 18.2144Z" fill="#898888"/>
</svg>
